<svg xmlns="http://www.w3.org/2000/svg" viewBox="0 0 1200 630" width="1200" height="630" font-family="ui-monospace,Menlo,monospace"><rect width="1200" height="630" fill="#070b16"/><circle cx="1109.8" cy="597.6" r="1.0" fill="#5a6b8c" opacity="0.06"/><circle cx="710.4" cy="267.0" r="0.8" fill="#5a6b8c" opacity="0.07"/><circle cx="230.4" cy="280.1" r="0.6" fill="#5a6b8c" opacity="0.13"/><circle cx="29.7" cy="54.0" r="0.9" fill="#5a6b8c" opacity="0.12"/><circle cx="615.2" cy="462.6" r="0.7" fill="#5a6b8c" opacity="0.06"/><circle cx="939.7" cy="371.1" r="0.9" fill="#5a6b8c" opacity="0.16"/><circle cx="1164.9" cy="228.6" r="0.9" fill="#5a6b8c" opacity="0.11"/><circle cx="686.5" cy="416.1" r="0.6" fill="#5a6b8c" opacity="0.06"/><circle cx="568.9" cy="452.3" r="0.8" fill="#5a6b8c" opacity="0.13"/><circle cx="770.9" cy="114.7" r="0.5" fill="#5a6b8c" opacity="0.10"/><circle cx="979.0" cy="123.2" r="0.5" fill="#5a6b8c" opacity="0.07"/><circle cx="46.7" cy="173.6" r="0.8" fill="#5a6b8c" opacity="0.19"/><circle cx="397.0" cy="232.9" r="0.6" fill="#5a6b8c" opacity="0.10"/><circle cx="933.1" cy="345.9" r="0.6" fill="#5a6b8c" opacity="0.07"/><circle cx="940.6" cy="445.5" r="1.0" fill="#5a6b8c" opacity="0.09"/><circle cx="654.6" cy="578.8" r="0.8" fill="#5a6b8c" opacity="0.21"/><circle cx="200.7" cy="614.3" r="0.4" fill="#5a6b8c" opacity="0.12"/><circle cx="28.0" cy="510.0" r="0.9" fill="#5a6b8c" opacity="0.22"/><circle cx="966.0" cy="597.8" r="0.8" fill="#5a6b8c" opacity="0.22"/><circle cx="898.8" cy="218.1" r="1.1" fill="#5a6b8c" opacity="0.11"/><circle cx="232.0" cy="47.8" r="0.7" fill="#5a6b8c" opacity="0.08"/><circle cx="1120.3" cy="598.8" r="0.6" fill="#5a6b8c" opacity="0.07"/><circle cx="634.8" cy="106.9" r="0.8" fill="#5a6b8c" opacity="0.19"/><circle cx="303.7" cy="265.7" r="1.0" fill="#5a6b8c" opacity="0.13"/><circle cx="411.3" cy="562.2" r="1.0" fill="#5a6b8c" opacity="0.20"/><circle cx="825.3" cy="260.0" r="0.9" fill="#5a6b8c" opacity="0.19"/><circle cx="767.4" cy="150.2" r="0.6" fill="#5a6b8c" opacity="0.12"/><circle cx="926.0" cy="351.0" r="0.8" fill="#5a6b8c" opacity="0.19"/><circle cx="130.1" cy="397.7" r="0.6" fill="#5a6b8c" opacity="0.15"/><circle cx="1002.4" cy="156.5" r="1.1" fill="#5a6b8c" opacity="0.06"/><circle cx="674.4" cy="341.3" r="0.6" fill="#5a6b8c" opacity="0.15"/><circle cx="564.9" cy="283.2" r="0.9" fill="#5a6b8c" opacity="0.05"/><circle cx="452.6" cy="494.9" r="0.5" fill="#5a6b8c" opacity="0.20"/><circle cx="244.3" cy="429.1" r="0.5" fill="#5a6b8c" opacity="0.13"/><circle cx="507.1" cy="51.5" r="0.9" fill="#5a6b8c" opacity="0.13"/><circle cx="826.8" cy="339.7" r="0.8" fill="#5a6b8c" opacity="0.14"/><circle cx="357.4" cy="566.2" r="0.5" fill="#5a6b8c" opacity="0.20"/><circle cx="1036.2" cy="313.6" r="0.9" fill="#5a6b8c" opacity="0.16"/><circle cx="726.1" cy="183.7" r="0.6" fill="#5a6b8c" opacity="0.11"/><circle cx="362.6" cy="604.6" r="0.6" fill="#5a6b8c" opacity="0.12"/><circle cx="503.5" cy="514.4" r="0.7" fill="#5a6b8c" opacity="0.14"/><circle cx="306.6" cy="175.2" r="0.5" fill="#5a6b8c" opacity="0.09"/><circle cx="316.7" cy="536.9" r="0.8" fill="#5a6b8c" opacity="0.07"/><circle cx="555.3" cy="76.2" r="0.8" fill="#5a6b8c" opacity="0.13"/><circle cx="1029.9" cy="163.3" r="1.0" fill="#5a6b8c" opacity="0.09"/><circle cx="1179.1" cy="399.5" r="0.4" fill="#5a6b8c" opacity="0.19"/><circle cx="330.8" cy="228.2" r="0.5" fill="#5a6b8c" opacity="0.19"/><circle cx="108.4" cy="465.1" r="0.7" fill="#5a6b8c" opacity="0.17"/><circle cx="351.7" cy="49.3" r="1.0" fill="#5a6b8c" opacity="0.16"/><circle cx="203.6" cy="615.0" r="1.0" fill="#5a6b8c" opacity="0.08"/><circle cx="22.9" cy="384.9" r="0.5" fill="#5a6b8c" opacity="0.17"/><circle cx="562.7" cy="446.7" r="0.8" fill="#5a6b8c" opacity="0.18"/><circle cx="986.0" cy="379.8" r="0.8" fill="#5a6b8c" opacity="0.11"/><circle cx="160.9" cy="58.3" r="1.0" fill="#5a6b8c" opacity="0.09"/><circle cx="511.9" cy="199.6" r="0.8" fill="#5a6b8c" opacity="0.14"/><circle cx="1030.8" cy="274.7" r="0.7" fill="#5a6b8c" opacity="0.16"/><circle cx="893.8" cy="583.0" r="0.6" fill="#5a6b8c" opacity="0.20"/><circle cx="1177.7" cy="618.9" r="0.5" fill="#5a6b8c" opacity="0.11"/><circle cx="928.8" cy="523.5" r="0.4" fill="#5a6b8c" opacity="0.12"/><circle cx="869.0" cy="477.7" r="0.8" fill="#5a6b8c" opacity="0.09"/><circle cx="488.2" cy="36.9" r="0.6" fill="#5a6b8c" opacity="0.12"/><circle cx="987.5" cy="371.3" r="0.7" fill="#5a6b8c" opacity="0.09"/><circle cx="378.3" cy="422.6" r="0.7" fill="#5a6b8c" opacity="0.08"/><circle cx="986.1" cy="362.6" r="1.1" fill="#5a6b8c" opacity="0.14"/><circle cx="747.7" cy="269.4" r="0.8" fill="#5a6b8c" opacity="0.21"/><circle cx="1177.5" cy="416.4" r="0.7" fill="#5a6b8c" opacity="0.06"/><circle cx="1008.2" cy="246.6" r="0.7" fill="#5a6b8c" opacity="0.06"/><circle cx="41.0" cy="246.0" r="1.1" fill="#5a6b8c" opacity="0.18"/><circle cx="850.6" cy="421.1" r="0.6" fill="#5a6b8c" opacity="0.08"/><circle cx="722.8" cy="40.0" r="0.8" fill="#5a6b8c" opacity="0.14"/><circle cx="651.0" cy="76.4" r="0.4" fill="#5a6b8c" opacity="0.13"/><circle cx="174.7" cy="404.1" r="0.6" fill="#5a6b8c" opacity="0.16"/><circle cx="900.3" cy="382.1" r="0.8" fill="#5a6b8c" opacity="0.08"/><circle cx="416.6" cy="616.1" r="0.6" fill="#5a6b8c" opacity="0.10"/><circle cx="591.9" cy="344.0" r="1.0" fill="#5a6b8c" opacity="0.10"/><circle cx="1155.4" cy="14.0" r="1.0" fill="#5a6b8c" opacity="0.15"/><circle cx="1081.4" cy="96.4" r="0.9" fill="#5a6b8c" opacity="0.21"/><circle cx="800.5" cy="70.8" r="1.0" fill="#5a6b8c" opacity="0.21"/><circle cx="133.0" cy="521.2" r="0.5" fill="#5a6b8c" opacity="0.06"/><circle cx="954.4" cy="453.5" r="1.1" fill="#5a6b8c" opacity="0.16"/><circle cx="614.0" cy="171.4" r="0.8" fill="#5a6b8c" opacity="0.22"/><circle cx="776.0" cy="551.6" r="0.5" fill="#5a6b8c" opacity="0.17"/><circle cx="878.1" cy="44.6" r="1.0" fill="#5a6b8c" opacity="0.08"/><circle cx="260.8" cy="38.6" r="0.9" fill="#5a6b8c" opacity="0.07"/><circle cx="1170.8" cy="0.0" r="1.0" fill="#5a6b8c" opacity="0.18"/><circle cx="683.2" cy="360.3" r="1.0" fill="#5a6b8c" opacity="0.16"/><circle cx="167.2" cy="502.0" r="0.6" fill="#5a6b8c" opacity="0.15"/><circle cx="614.9" cy="569.5" r="0.7" fill="#5a6b8c" opacity="0.20"/><circle cx="98.2" cy="205.5" r="0.9" fill="#5a6b8c" opacity="0.15"/><circle cx="998.8" cy="131.0" r="1.0" fill="#5a6b8c" opacity="0.19"/><circle cx="171.5" cy="88.1" r="0.8" fill="#5a6b8c" opacity="0.22"/><circle cx="736.5" cy="269.6" r="0.8" fill="#5a6b8c" opacity="0.19"/><circle cx="626.7" cy="338.2" r="0.8" fill="#5a6b8c" opacity="0.21"/><circle cx="960.5" cy="528.7" r="0.6" fill="#5a6b8c" opacity="0.15"/><circle cx="987.7" cy="452.4" r="1.1" fill="#5a6b8c" opacity="0.21"/><circle cx="153.2" cy="320.2" r="0.7" fill="#5a6b8c" opacity="0.08"/><circle cx="601.0" cy="619.7" r="0.9" fill="#5a6b8c" opacity="0.07"/><circle cx="297.3" cy="232.9" r="1.0" fill="#5a6b8c" opacity="0.13"/><circle cx="191.4" cy="346.6" r="0.6" fill="#5a6b8c" opacity="0.06"/><circle cx="711.2" cy="624.2" r="0.9" fill="#5a6b8c" opacity="0.18"/><circle cx="183.2" cy="353.9" r="0.8" fill="#5a6b8c" opacity="0.18"/><circle cx="536.0" cy="33.6" r="1.0" fill="#5a6b8c" opacity="0.10"/><circle cx="886.1" cy="292.5" r="0.9" fill="#5a6b8c" opacity="0.11"/><circle cx="111.0" cy="269.6" r="0.7" fill="#5a6b8c" opacity="0.18"/><circle cx="484.5" cy="419.9" r="0.7" fill="#5a6b8c" opacity="0.17"/><circle cx="209.1" cy="554.4" r="1.1" fill="#5a6b8c" opacity="0.05"/><circle cx="1030.1" cy="490.2" r="0.9" fill="#5a6b8c" opacity="0.07"/><circle cx="879.4" cy="486.2" r="0.8" fill="#5a6b8c" opacity="0.21"/><circle cx="1136.3" cy="399.2" r="1.0" fill="#5a6b8c" opacity="0.07"/><circle cx="358.0" cy="333.8" r="0.8" fill="#5a6b8c" opacity="0.21"/><circle cx="763.1" cy="391.4" r="0.8" fill="#5a6b8c" opacity="0.21"/><circle cx="480.5" cy="465.8" r="0.8" fill="#5a6b8c" opacity="0.12"/><circle cx="406.8" cy="96.8" r="0.4" fill="#5a6b8c" opacity="0.11"/><circle cx="360.2" cy="51.2" r="0.7" fill="#5a6b8c" opacity="0.11"/><circle cx="1111.2" cy="491.7" r="0.9" fill="#5a6b8c" opacity="0.19"/><circle cx="329.6" cy="73.3" r="0.8" fill="#5a6b8c" opacity="0.09"/><circle cx="1182.1" cy="267.7" r="1.0" fill="#5a6b8c" opacity="0.09"/><circle cx="112.5" cy="395.0" r="0.9" fill="#5a6b8c" opacity="0.09"/><circle cx="1112.2" cy="613.1" r="0.9" fill="#5a6b8c" opacity="0.22"/><circle cx="1179.8" cy="93.3" r="0.9" fill="#5a6b8c" opacity="0.18"/><circle cx="878.3" cy="213.9" r="0.8" fill="#5a6b8c" opacity="0.15"/><circle cx="1019.9" cy="32.4" r="0.7" fill="#5a6b8c" opacity="0.10"/><circle cx="949.9" cy="73.5" r="0.4" fill="#5a6b8c" opacity="0.07"/><circle cx="139.2" cy="274.2" r="1.0" fill="#5a6b8c" opacity="0.11"/><circle cx="121.4" cy="422.1" r="0.6" fill="#5a6b8c" opacity="0.15"/><circle cx="897.2" cy="287.2" r="0.9" fill="#5a6b8c" opacity="0.16"/><circle cx="1022.1" cy="480.3" r="1.0" fill="#5a6b8c" opacity="0.18"/><circle cx="338.7" cy="317.9" r="0.9" fill="#5a6b8c" opacity="0.18"/><circle cx="876.4" cy="531.1" r="1.0" fill="#5a6b8c" opacity="0.14"/><circle cx="768.6" cy="27.6" r="0.7" fill="#5a6b8c" opacity="0.17"/><circle cx="1096.2" cy="534.4" r="0.7" fill="#5a6b8c" opacity="0.09"/><circle cx="1062.7" cy="414.1" r="0.5" fill="#5a6b8c" opacity="0.06"/><circle cx="1053.7" cy="363.3" r="0.5" fill="#5a6b8c" opacity="0.22"/><circle cx="704.7" cy="477.9" r="1.0" fill="#5a6b8c" opacity="0.09"/><circle cx="626.9" cy="108.5" r="0.8" fill="#5a6b8c" opacity="0.12"/><circle cx="948.0" cy="73.0" r="0.5" fill="#5a6b8c" opacity="0.12"/><circle cx="1.9" cy="256.1" r="1.1" fill="#5a6b8c" opacity="0.20"/><circle cx="216.1" cy="524.0" r="0.6" fill="#5a6b8c" opacity="0.09"/><circle cx="765.1" cy="185.3" r="0.5" fill="#5a6b8c" opacity="0.06"/><circle cx="212.1" cy="121.3" r="1.0" fill="#5a6b8c" opacity="0.06"/><circle cx="648.2" cy="133.7" r="0.9" fill="#5a6b8c" opacity="0.05"/><circle cx="445.7" cy="464.7" r="0.4" fill="#5a6b8c" opacity="0.12"/><circle cx="391.2" cy="305.0" r="0.8" fill="#5a6b8c" opacity="0.06"/><circle cx="1039.1" cy="170.1" r="0.9" fill="#5a6b8c" opacity="0.07"/><circle cx="112.6" cy="122.0" r="0.5" fill="#5a6b8c" opacity="0.09"/><circle cx="167.5" cy="54.5" r="1.0" fill="#5a6b8c" opacity="0.14"/><circle cx="595.8" cy="320.2" r="1.0" fill="#5a6b8c" opacity="0.06"/><circle cx="54.4" cy="419.7" r="0.4" fill="#5a6b8c" opacity="0.14"/><circle cx="749.9" cy="535.2" r="0.4" fill="#5a6b8c" opacity="0.12"/><circle cx="375.5" cy="365.5" r="0.4" fill="#5a6b8c" opacity="0.18"/><circle cx="1148.4" cy="345.7" r="0.9" fill="#5a6b8c" opacity="0.19"/><circle cx="1012.5" cy="516.2" r="0.7" fill="#5a6b8c" opacity="0.06"/><circle cx="953.3" cy="531.5" r="0.9" fill="#5a6b8c" opacity="0.10"/><circle cx="1169.9" cy="392.4" r="0.6" fill="#5a6b8c" opacity="0.18"/><circle cx="269.0" cy="151.7" r="1.0" fill="#5a6b8c" opacity="0.06"/><circle cx="1043.7" cy="250.0" r="0.8" fill="#5a6b8c" opacity="0.17"/><circle cx="1083.1" cy="138.5" r="0.5" fill="#5a6b8c" opacity="0.14"/><circle cx="268.9" cy="267.2" r="0.5" fill="#5a6b8c" opacity="0.07"/><circle cx="681.0" cy="32.6" r="0.6" fill="#5a6b8c" opacity="0.12"/><circle cx="113.9" cy="507.5" r="1.0" fill="#5a6b8c" opacity="0.06"/><circle cx="968.2" cy="110.8" r="0.9" fill="#5a6b8c" opacity="0.06"/><circle cx="894.6" cy="587.5" r="0.6" fill="#5a6b8c" opacity="0.08"/><circle cx="408.6" cy="541.7" r="0.9" fill="#5a6b8c" opacity="0.08"/><circle cx="1082.2" cy="465.7" r="1.1" fill="#5a6b8c" opacity="0.22"/><circle cx="190.1" cy="458.4" r="0.4" fill="#5a6b8c" opacity="0.08"/><circle cx="643.8" cy="146.9" r="0.6" fill="#5a6b8c" opacity="0.11"/><circle cx="551.3" cy="578.3" r="0.8" fill="#5a6b8c" opacity="0.14"/><circle cx="863.1" cy="118.7" r="1.0" fill="#5a6b8c" opacity="0.18"/><circle cx="977.1" cy="283.6" r="0.8" fill="#5a6b8c" opacity="0.06"/><circle cx="550.2" cy="405.5" r="1.1" fill="#5a6b8c" opacity="0.20"/><circle cx="407.1" cy="476.5" r="1.0" fill="#5a6b8c" opacity="0.21"/><circle cx="816.6" cy="207.6" r="1.0" fill="#5a6b8c" opacity="0.05"/><circle cx="681.0" cy="288.6" r="1.0" fill="#5a6b8c" opacity="0.16"/><circle cx="240.7" cy="104.3" r="0.4" fill="#5a6b8c" opacity="0.18"/><circle cx="939.9" cy="235.2" r="0.6" fill="#5a6b8c" opacity="0.14"/><circle cx="234.6" cy="331.8" r="0.6" fill="#5a6b8c" opacity="0.10"/><circle cx="829.3" cy="156.7" r="0.6" fill="#5a6b8c" opacity="0.15"/><circle cx="1130.2" cy="94.6" r="0.6" fill="#5a6b8c" opacity="0.10"/><circle cx="378.0" cy="307.2" r="1.0" fill="#5a6b8c" opacity="0.08"/><circle cx="862.5" cy="272.2" r="0.8" fill="#5a6b8c" opacity="0.14"/><circle cx="723.6" cy="113.1" r="0.8" fill="#5a6b8c" opacity="0.12"/><circle cx="940.9" cy="375.3" r="0.7" fill="#5a6b8c" opacity="0.22"/><circle cx="214.9" cy="8.7" r="0.5" fill="#5a6b8c" opacity="0.17"/><circle cx="110.3" cy="463.3" r="0.5" fill="#5a6b8c" opacity="0.10"/><circle cx="746.7" cy="13.1" r="0.7" fill="#5a6b8c" opacity="0.22"/><circle cx="873.5" cy="245.2" r="1.0" fill="#5a6b8c" opacity="0.15"/><circle cx="973.1" cy="216.6" r="0.7" fill="#5a6b8c" opacity="0.17"/><circle cx="913.1" cy="436.4" r="0.5" fill="#5a6b8c" opacity="0.12"/><circle cx="381.9" cy="145.8" r="0.5" fill="#5a6b8c" opacity="0.18"/><circle cx="169.8" cy="222.9" r="0.4" fill="#5a6b8c" opacity="0.17"/><circle cx="750.4" cy="49.2" r="1.1" fill="#5a6b8c" opacity="0.22"/><circle cx="900.0" cy="507.6" r="0.9" fill="#5a6b8c" opacity="0.05"/><circle cx="327.7" cy="149.2" r="0.4" fill="#5a6b8c" opacity="0.16"/><circle cx="709.4" cy="228.2" r="0.9" fill="#5a6b8c" opacity="0.09"/><circle cx="336.9" cy="72.5" r="0.6" fill="#5a6b8c" opacity="0.19"/><circle cx="588.0" cy="464.1" r="1.0" fill="#5a6b8c" opacity="0.16"/><circle cx="433.4" cy="609.4" r="0.5" fill="#5a6b8c" opacity="0.12"/><circle cx="1062.1" cy="429.8" r="0.6" fill="#5a6b8c" opacity="0.19"/><circle cx="909.4" cy="455.7" r="0.6" fill="#5a6b8c" opacity="0.17"/><circle cx="787.0" cy="529.2" r="0.8" fill="#5a6b8c" opacity="0.21"/><circle cx="864.2" cy="132.0" r="0.8" fill="#5a6b8c" opacity="0.08"/><circle cx="740.9" cy="205.2" r="1.1" fill="#5a6b8c" opacity="0.11"/><circle cx="947.8" cy="526.6" r="0.7" fill="#5a6b8c" opacity="0.15"/><circle cx="279.3" cy="236.5" r="0.7" fill="#5a6b8c" opacity="0.17"/><circle cx="609.8" cy="101.4" r="0.9" fill="#5a6b8c" opacity="0.14"/><circle cx="630.2" cy="280.7" r="1.0" fill="#5a6b8c" opacity="0.16"/><circle cx="793.9" cy="315.8" r="0.7" fill="#5a6b8c" opacity="0.12"/><circle cx="814.6" cy="275.9" r="0.4" fill="#5a6b8c" opacity="0.09"/><circle cx="64.2" cy="30.9" r="0.7" fill="#5a6b8c" opacity="0.11"/><circle cx="547.7" cy="126.7" r="0.6" fill="#5a6b8c" opacity="0.13"/><circle cx="348.5" cy="164.4" r="0.7" fill="#5a6b8c" opacity="0.18"/><circle cx="72.9" cy="8.6" r="0.7" fill="#5a6b8c" opacity="0.20"/><circle cx="758.3" cy="229.9" r="1.1" fill="#5a6b8c" opacity="0.17"/><circle cx="990.5" cy="530.6" r="0.4" fill="#5a6b8c" opacity="0.08"/><circle cx="949.0" cy="246.4" r="1.0" fill="#5a6b8c" opacity="0.06"/><circle cx="1125.5" cy="391.0" r="0.7" fill="#5a6b8c" opacity="0.19"/><circle cx="642.6" cy="289.5" r="0.5" fill="#5a6b8c" opacity="0.18"/><circle cx="175.5" cy="189.1" r="0.5" fill="#5a6b8c" opacity="0.05"/><circle cx="356.5" cy="27.9" r="0.7" fill="#5a6b8c" opacity="0.11"/><circle cx="21.7" cy="292.3" r="0.6" fill="#5a6b8c" opacity="0.09"/><circle cx="649.4" cy="209.5" r="0.4" fill="#5a6b8c" opacity="0.21"/><circle cx="1166.0" cy="149.2" r="0.9" fill="#5a6b8c" opacity="0.15"/><circle cx="298.3" cy="339.1" r="0.6" fill="#5a6b8c" opacity="0.10"/><circle cx="544.1" cy="28.4" r="0.6" fill="#5a6b8c" opacity="0.22"/><circle cx="924.2" cy="208.8" r="1.1" fill="#5a6b8c" opacity="0.11"/><circle cx="1021.5" cy="203.2" r="1.0" fill="#5a6b8c" opacity="0.13"/><circle cx="1046.2" cy="86.2" r="0.7" fill="#5a6b8c" opacity="0.11"/><circle cx="938.1" cy="545.3" r="0.5" fill="#5a6b8c" opacity="0.12"/><circle cx="207.1" cy="41.5" r="0.5" fill="#5a6b8c" opacity="0.06"/><circle cx="362.1" cy="271.4" r="1.0" fill="#5a6b8c" opacity="0.16"/><circle cx="912.9" cy="208.3" r="0.6" fill="#5a6b8c" opacity="0.12"/><circle cx="279.3" cy="12.6" r="0.6" fill="#5a6b8c" opacity="0.21"/><circle cx="61.3" cy="317.5" r="0.6" fill="#5a6b8c" opacity="0.18"/><circle cx="45.7" cy="321.5" r="0.9" fill="#5a6b8c" opacity="0.13"/><circle cx="172.2" cy="560.0" r="0.4" fill="#5a6b8c" opacity="0.21"/><circle cx="981.8" cy="556.9" r="1.0" fill="#5a6b8c" opacity="0.11"/><circle cx="751.4" cy="296.1" r="0.8" fill="#5a6b8c" opacity="0.11"/><circle cx="1025.6" cy="193.9" r="0.8" fill="#5a6b8c" opacity="0.06"/><circle cx="70.3" cy="557.6" r="0.6" fill="#5a6b8c" opacity="0.11"/><circle cx="1182.8" cy="455.1" r="0.5" fill="#5a6b8c" opacity="0.14"/><circle cx="900" cy="315" r="150" fill="none" stroke="#00d4ff" stroke-width="1.4" opacity="0.16"/><circle cx="900" cy="315" r="172" fill="none" stroke="#00d4ff" stroke-width="1.4" opacity="0.12"/><circle cx="900" cy="315" r="194" fill="none" stroke="#00d4ff" stroke-width="1.4" opacity="0.08"/><circle cx="1050.0" cy="315.0" r="13.2" fill="#00e660" opacity="0.033"/><circle cx="1050.0" cy="315.0" r="8.1" fill="#00e660" opacity="0.067"/><circle cx="1050.0" cy="315.0" r="3.0" fill="#00e660" opacity="0.100"/><circle cx="1050.0" cy="315.0" r="3.0" fill="#00e660"/><circle cx="1029.9" cy="390.0" r="13.2" fill="#b48bff" opacity="0.033"/><circle cx="1029.9" cy="390.0" r="8.1" fill="#b48bff" opacity="0.067"/><circle cx="1029.9" cy="390.0" r="3.0" fill="#b48bff" opacity="0.100"/><circle cx="1029.9" cy="390.0" r="3.0" fill="#b48bff"/><circle cx="975.0" cy="444.9" r="13.2" fill="#1b2740" opacity="0.033"/><circle cx="975.0" cy="444.9" r="8.1" fill="#1b2740" opacity="0.067"/><circle cx="975.0" cy="444.9" r="3.0" fill="#1b2740" opacity="0.100"/><circle cx="975.0" cy="444.9" r="3.0" fill="#1b2740"/><circle cx="900.0" cy="465.0" r="13.2" fill="#00e660" opacity="0.033"/><circle cx="900.0" cy="465.0" r="8.1" fill="#00e660" opacity="0.067"/><circle cx="900.0" cy="465.0" r="3.0" fill="#00e660" opacity="0.100"/><circle cx="900.0" cy="465.0" r="3.0" fill="#00e660"/><circle cx="825.0" cy="444.9" r="13.2" fill="#b48bff" opacity="0.033"/><circle cx="825.0" cy="444.9" r="8.1" fill="#b48bff" opacity="0.067"/><circle cx="825.0" cy="444.9" r="3.0" fill="#b48bff" opacity="0.100"/><circle cx="825.0" cy="444.9" r="3.0" fill="#b48bff"/><circle cx="770.1" cy="390.0" r="13.2" fill="#1b2740" opacity="0.033"/><circle cx="770.1" cy="390.0" r="8.1" fill="#1b2740" opacity="0.067"/><circle cx="770.1" cy="390.0" r="3.0" fill="#1b2740" opacity="0.100"/><circle cx="770.1" cy="390.0" r="3.0" fill="#1b2740"/><circle cx="750.0" cy="315.0" r="13.2" fill="#00e660" opacity="0.033"/><circle cx="750.0" cy="315.0" r="8.1" fill="#00e660" opacity="0.067"/><circle cx="750.0" cy="315.0" r="3.0" fill="#00e660" opacity="0.100"/><circle cx="750.0" cy="315.0" r="3.0" fill="#00e660"/><circle cx="770.1" cy="240.0" r="13.2" fill="#b48bff" opacity="0.033"/><circle cx="770.1" cy="240.0" r="8.1" fill="#b48bff" opacity="0.067"/><circle cx="770.1" cy="240.0" r="3.0" fill="#b48bff" opacity="0.100"/><circle cx="770.1" cy="240.0" r="3.0" fill="#b48bff"/><circle cx="825.0" cy="185.1" r="13.2" fill="#1b2740" opacity="0.033"/><circle cx="825.0" cy="185.1" r="8.1" fill="#1b2740" opacity="0.067"/><circle cx="825.0" cy="185.1" r="3.0" fill="#1b2740" opacity="0.100"/><circle cx="825.0" cy="185.1" r="3.0" fill="#1b2740"/><circle cx="900.0" cy="165.0" r="13.2" fill="#00e660" opacity="0.033"/><circle cx="900.0" cy="165.0" r="8.1" fill="#00e660" opacity="0.067"/><circle cx="900.0" cy="165.0" r="3.0" fill="#00e660" opacity="0.100"/><circle cx="900.0" cy="165.0" r="3.0" fill="#00e660"/><circle cx="975.0" cy="185.1" r="13.2" fill="#b48bff" opacity="0.033"/><circle cx="975.0" cy="185.1" r="8.1" fill="#b48bff" opacity="0.067"/><circle cx="975.0" cy="185.1" r="3.0" fill="#b48bff" opacity="0.100"/><circle cx="975.0" cy="185.1" r="3.0" fill="#b48bff"/><circle cx="1029.9" cy="240.0" r="13.2" fill="#1b2740" opacity="0.033"/><circle cx="1029.9" cy="240.0" r="8.1" fill="#1b2740" opacity="0.067"/><circle cx="1029.9" cy="240.0" r="3.0" fill="#1b2740" opacity="0.100"/><circle cx="1029.9" cy="240.0" r="3.0" fill="#1b2740"/><circle cx="600.0" cy="315.0" r="660" fill="none" stroke="#070b16" stroke-width="120" opacity="0.00"/><circle cx="600.0" cy="315.0" r="768" fill="none" stroke="#070b16" stroke-width="120" opacity="0.06"/><circle cx="600.0" cy="315.0" r="876" fill="none" stroke="#070b16" stroke-width="120" opacity="0.12"/><circle cx="600.0" cy="315.0" r="984" fill="none" stroke="#070b16" stroke-width="120" opacity="0.18"/><circle cx="600.0" cy="315.0" r="1092" fill="none" stroke="#070b16" stroke-width="120" opacity="0.24"/><circle cx="600.0" cy="315.0" r="1200" fill="none" stroke="#070b16" stroke-width="120" opacity="0.30"/><text x="60" y="120" fill="#c8d4e8" font-size="62" font-weight="700" letter-spacing="2">LOW-BIT</text><text x="62" y="162" fill="#00d4ff" font-size="24" opacity="0.9">a ternary sci-fi &#183; part 2</text><text x="62" y="196" fill="#5a6b8c" font-size="17">the loop that learns between answers</text></svg>