<svg xmlns="http://www.w3.org/2000/svg" viewBox="0 0 1200 630" width="1200" height="630" font-family="ui-monospace,Menlo,monospace"><rect width="1200" height="630" fill="#070b16"/><circle cx="457.2" cy="145.4" r="0.5" fill="#5a6b8c" opacity="0.19"/><circle cx="693.5" cy="434.8" r="0.8" fill="#5a6b8c" opacity="0.11"/><circle cx="877.9" cy="363.1" r="0.9" fill="#5a6b8c" opacity="0.15"/><circle cx="1007.2" cy="276.8" r="0.5" fill="#5a6b8c" opacity="0.07"/><circle cx="867.8" cy="105.5" r="0.9" fill="#5a6b8c" opacity="0.14"/><circle cx="71.4" cy="494.1" r="0.4" fill="#5a6b8c" opacity="0.18"/><circle cx="1009.3" cy="136.0" r="0.9" fill="#5a6b8c" opacity="0.16"/><circle cx="150.0" cy="422.1" r="0.5" fill="#5a6b8c" opacity="0.19"/><circle cx="826.6" cy="617.4" r="0.4" fill="#5a6b8c" opacity="0.10"/><circle cx="743.9" cy="383.2" r="0.5" fill="#5a6b8c" opacity="0.18"/><circle cx="1015.8" cy="189.9" r="0.5" fill="#5a6b8c" opacity="0.15"/><circle cx="488.6" cy="417.9" r="0.7" fill="#5a6b8c" opacity="0.11"/><circle cx="26.0" cy="85.0" r="0.7" fill="#5a6b8c" opacity="0.16"/><circle cx="510.8" cy="469.0" r="0.8" fill="#5a6b8c" opacity="0.18"/><circle cx="786.1" cy="202.8" r="0.5" fill="#5a6b8c" opacity="0.06"/><circle cx="47.5" cy="543.4" r="1.0" fill="#5a6b8c" opacity="0.16"/><circle cx="131.2" cy="416.1" r="0.5" fill="#5a6b8c" opacity="0.18"/><circle cx="786.5" cy="472.3" r="0.8" fill="#5a6b8c" opacity="0.11"/><circle cx="1018.1" cy="605.9" r="0.6" fill="#5a6b8c" opacity="0.12"/><circle cx="880.1" cy="428.4" r="0.7" fill="#5a6b8c" opacity="0.12"/><circle cx="1161.2" cy="173.8" r="0.5" fill="#5a6b8c" opacity="0.15"/><circle cx="332.4" cy="565.4" r="0.6" fill="#5a6b8c" opacity="0.19"/><circle cx="455.8" cy="557.6" r="0.9" fill="#5a6b8c" opacity="0.16"/><circle cx="257.2" cy="103.5" r="0.4" fill="#5a6b8c" opacity="0.08"/><circle cx="799.9" cy="40.6" r="0.6" fill="#5a6b8c" opacity="0.14"/><circle cx="186.2" cy="207.3" r="0.6" fill="#5a6b8c" opacity="0.15"/><circle cx="142.2" cy="628.4" r="0.8" fill="#5a6b8c" opacity="0.16"/><circle cx="663.1" cy="313.6" r="1.1" fill="#5a6b8c" opacity="0.18"/><circle cx="986.3" cy="18.8" r="0.8" fill="#5a6b8c" opacity="0.19"/><circle cx="766.0" cy="323.2" r="0.9" fill="#5a6b8c" opacity="0.08"/><circle cx="873.2" cy="493.7" r="0.5" fill="#5a6b8c" opacity="0.13"/><circle cx="714.3" cy="221.8" r="0.9" fill="#5a6b8c" opacity="0.19"/><circle cx="1087.4" cy="193.9" r="0.5" fill="#5a6b8c" opacity="0.18"/><circle cx="734.4" cy="522.6" r="1.0" fill="#5a6b8c" opacity="0.09"/><circle cx="704.9" cy="191.0" r="1.0" fill="#5a6b8c" opacity="0.15"/><circle cx="286.9" cy="315.1" r="0.8" fill="#5a6b8c" opacity="0.08"/><circle cx="219.0" cy="298.8" r="0.5" fill="#5a6b8c" opacity="0.12"/><circle cx="1128.0" cy="520.4" r="0.4" fill="#5a6b8c" opacity="0.17"/><circle cx="859.7" cy="446.2" r="0.4" fill="#5a6b8c" opacity="0.16"/><circle cx="234.5" cy="505.9" r="0.6" fill="#5a6b8c" opacity="0.10"/><circle cx="206.7" cy="546.6" r="0.6" fill="#5a6b8c" opacity="0.18"/><circle cx="616.6" cy="93.6" r="0.9" fill="#5a6b8c" opacity="0.13"/><circle cx="32.4" cy="518.9" r="0.6" fill="#5a6b8c" opacity="0.05"/><circle cx="919.6" cy="458.0" r="0.7" fill="#5a6b8c" opacity="0.08"/><circle cx="632.3" cy="369.4" r="0.9" fill="#5a6b8c" opacity="0.12"/><circle cx="681.4" cy="454.1" r="0.5" fill="#5a6b8c" opacity="0.08"/><circle cx="581.3" cy="475.1" r="1.0" fill="#5a6b8c" opacity="0.18"/><circle cx="526.7" cy="449.6" r="0.5" fill="#5a6b8c" opacity="0.11"/><circle cx="80.2" cy="526.2" r="1.1" fill="#5a6b8c" opacity="0.15"/><circle cx="902.9" cy="234.5" r="1.0" fill="#5a6b8c" opacity="0.06"/><circle cx="444.7" cy="221.0" r="1.0" fill="#5a6b8c" opacity="0.08"/><circle cx="191.0" cy="56.3" r="1.0" fill="#5a6b8c" opacity="0.10"/><circle cx="1083.7" cy="197.2" r="1.0" fill="#5a6b8c" opacity="0.08"/><circle cx="1083.0" cy="613.4" r="1.0" fill="#5a6b8c" opacity="0.15"/><circle cx="1075.6" cy="576.0" r="1.1" fill="#5a6b8c" opacity="0.09"/><circle cx="1019.9" cy="491.2" r="0.6" fill="#5a6b8c" opacity="0.08"/><circle cx="1079.6" cy="297.6" r="0.8" fill="#5a6b8c" opacity="0.18"/><circle cx="580.6" cy="159.1" r="0.9" fill="#5a6b8c" opacity="0.13"/><circle cx="326.9" cy="436.0" r="1.0" fill="#5a6b8c" opacity="0.09"/><circle cx="975.3" cy="474.8" r="0.8" fill="#5a6b8c" opacity="0.08"/><circle cx="797.9" cy="177.3" r="0.6" fill="#5a6b8c" opacity="0.18"/><circle cx="324.7" cy="58.3" r="1.0" fill="#5a6b8c" opacity="0.20"/><circle cx="366.4" cy="255.1" r="0.8" fill="#5a6b8c" opacity="0.16"/><circle cx="14.7" cy="408.2" r="0.6" fill="#5a6b8c" opacity="0.19"/><circle cx="497.6" cy="594.9" r="0.7" fill="#5a6b8c" opacity="0.15"/><circle cx="45.5" cy="127.7" r="0.6" fill="#5a6b8c" opacity="0.11"/><circle cx="207.7" cy="265.3" r="0.5" fill="#5a6b8c" opacity="0.13"/><circle cx="1155.5" cy="540.0" r="0.8" fill="#5a6b8c" opacity="0.20"/><circle cx="874.2" cy="399.6" r="0.7" fill="#5a6b8c" opacity="0.06"/><circle cx="1071.8" cy="564.6" r="1.0" fill="#5a6b8c" opacity="0.15"/><circle cx="975.2" cy="603.9" r="1.1" fill="#5a6b8c" opacity="0.17"/><circle cx="19.5" cy="596.8" r="0.8" fill="#5a6b8c" opacity="0.12"/><circle cx="517.2" cy="170.4" r="0.4" fill="#5a6b8c" opacity="0.14"/><circle cx="741.0" cy="54.4" r="1.0" fill="#5a6b8c" opacity="0.19"/><circle cx="1037.6" cy="338.6" r="0.7" fill="#5a6b8c" opacity="0.12"/><circle cx="444.7" cy="602.0" r="1.0" fill="#5a6b8c" opacity="0.18"/><circle cx="623.7" cy="321.9" r="0.9" fill="#5a6b8c" opacity="0.09"/><circle cx="220.9" cy="620.5" r="0.6" fill="#5a6b8c" opacity="0.09"/><circle cx="590.8" cy="55.6" r="0.8" fill="#5a6b8c" opacity="0.07"/><circle cx="995.0" cy="51.6" r="1.0" fill="#5a6b8c" opacity="0.09"/><circle cx="945.6" cy="504.5" r="1.1" fill="#5a6b8c" opacity="0.08"/><circle cx="1181.6" cy="93.2" r="0.6" fill="#5a6b8c" opacity="0.05"/><circle cx="592.8" cy="51.6" r="0.8" fill="#5a6b8c" opacity="0.19"/><circle cx="938.1" cy="408.1" r="0.5" fill="#5a6b8c" opacity="0.20"/><circle cx="437.7" cy="598.2" r="0.5" fill="#5a6b8c" opacity="0.09"/><circle cx="1137.3" cy="470.6" r="0.5" fill="#5a6b8c" opacity="0.12"/><circle cx="650.8" cy="158.7" r="0.6" fill="#5a6b8c" opacity="0.06"/><circle cx="611.3" cy="262.0" r="0.6" fill="#5a6b8c" opacity="0.12"/><circle cx="415.9" cy="243.4" r="0.9" fill="#5a6b8c" opacity="0.07"/><circle cx="114.5" cy="281.6" r="0.6" fill="#5a6b8c" opacity="0.12"/><circle cx="1031.7" cy="596.1" r="1.0" fill="#5a6b8c" opacity="0.19"/><circle cx="276.8" cy="218.1" r="0.5" fill="#5a6b8c" opacity="0.09"/><circle cx="312.7" cy="151.1" r="0.6" fill="#5a6b8c" opacity="0.19"/><circle cx="618.3" cy="566.8" r="0.8" fill="#5a6b8c" opacity="0.16"/><circle cx="804.1" cy="373.3" r="1.0" fill="#5a6b8c" opacity="0.14"/><circle cx="604.2" cy="144.5" r="0.5" fill="#5a6b8c" opacity="0.11"/><circle cx="487.4" cy="82.2" r="1.1" fill="#5a6b8c" opacity="0.05"/><circle cx="529.7" cy="155.4" r="0.7" fill="#5a6b8c" opacity="0.18"/><circle cx="1156.6" cy="251.1" r="0.9" fill="#5a6b8c" opacity="0.18"/><circle cx="348.3" cy="249.9" r="0.7" fill="#5a6b8c" opacity="0.18"/><circle cx="363.9" cy="564.8" r="0.5" fill="#5a6b8c" opacity="0.15"/><circle cx="757.0" cy="21.4" r="0.6" fill="#5a6b8c" opacity="0.18"/><circle cx="482.3" cy="36.0" r="0.7" fill="#5a6b8c" opacity="0.13"/><circle cx="563.4" cy="265.2" r="1.1" fill="#5a6b8c" opacity="0.15"/><circle cx="533.0" cy="281.5" r="0.9" fill="#5a6b8c" opacity="0.09"/><circle cx="578.4" cy="479.0" r="0.5" fill="#5a6b8c" opacity="0.07"/><circle cx="61.0" cy="422.0" r="1.0" fill="#5a6b8c" opacity="0.15"/><circle cx="743.9" cy="20.0" r="0.7" fill="#5a6b8c" opacity="0.12"/><circle cx="404.1" cy="157.7" r="0.7" fill="#5a6b8c" opacity="0.08"/><circle cx="84.0" cy="359.8" r="0.4" fill="#5a6b8c" opacity="0.12"/><circle cx="482.0" cy="510.5" r="0.9" fill="#5a6b8c" opacity="0.12"/><circle cx="7.3" cy="448.4" r="0.9" fill="#5a6b8c" opacity="0.15"/><circle cx="1188.7" cy="309.9" r="0.7" fill="#5a6b8c" opacity="0.13"/><circle cx="125.7" cy="394.7" r="0.5" fill="#5a6b8c" opacity="0.15"/><circle cx="734.3" cy="431.4" r="0.5" fill="#5a6b8c" opacity="0.16"/><circle cx="1131.6" cy="621.0" r="0.9" fill="#5a6b8c" opacity="0.07"/><circle cx="929.1" cy="111.7" r="1.1" fill="#5a6b8c" opacity="0.05"/><circle cx="20.1" cy="253.2" r="0.5" fill="#5a6b8c" opacity="0.19"/><circle cx="1116.4" cy="163.6" r="1.0" fill="#5a6b8c" opacity="0.10"/><circle cx="981.8" cy="78.5" r="1.1" fill="#5a6b8c" opacity="0.12"/><circle cx="283.2" cy="280.3" r="0.4" fill="#5a6b8c" opacity="0.06"/><circle cx="569.7" cy="375.6" r="1.1" fill="#5a6b8c" opacity="0.13"/><circle cx="403.2" cy="164.7" r="0.4" fill="#5a6b8c" opacity="0.19"/><circle cx="839.4" cy="166.6" r="0.9" fill="#5a6b8c" opacity="0.15"/><circle cx="767.0" cy="284.8" r="1.0" fill="#5a6b8c" opacity="0.19"/><circle cx="909.9" cy="117.0" r="0.7" fill="#5a6b8c" opacity="0.15"/><circle cx="1142.1" cy="318.2" r="0.7" fill="#5a6b8c" opacity="0.06"/><circle cx="77.2" cy="169.2" r="0.9" fill="#5a6b8c" opacity="0.08"/><circle cx="905.9" cy="405.0" r="0.6" fill="#5a6b8c" opacity="0.13"/><circle cx="1001.3" cy="19.7" r="0.8" fill="#5a6b8c" opacity="0.16"/><circle cx="1159.8" cy="209.4" r="0.8" fill="#5a6b8c" opacity="0.17"/><circle cx="363.7" cy="488.4" r="0.9" fill="#5a6b8c" opacity="0.19"/><circle cx="497.4" cy="68.8" r="0.8" fill="#5a6b8c" opacity="0.15"/><circle cx="1096.6" cy="476.5" r="0.8" fill="#5a6b8c" opacity="0.18"/><circle cx="1020.7" cy="385.6" r="0.6" fill="#5a6b8c" opacity="0.05"/><circle cx="703.4" cy="8.4" r="0.6" fill="#5a6b8c" opacity="0.20"/><circle cx="310.0" cy="434.1" r="0.9" fill="#5a6b8c" opacity="0.10"/><circle cx="722.0" cy="558.0" r="0.9" fill="#5a6b8c" opacity="0.10"/><circle cx="1193.6" cy="422.6" r="0.6" fill="#5a6b8c" opacity="0.17"/><circle cx="940.5" cy="552.8" r="1.0" fill="#5a6b8c" opacity="0.17"/><circle cx="469.2" cy="476.3" r="0.9" fill="#5a6b8c" opacity="0.17"/><circle cx="258.1" cy="621.4" r="0.8" fill="#5a6b8c" opacity="0.19"/><circle cx="620.4" cy="491.7" r="0.8" fill="#5a6b8c" opacity="0.09"/><circle cx="588.6" cy="517.6" r="0.6" fill="#5a6b8c" opacity="0.19"/><circle cx="878.1" cy="496.4" r="0.8" fill="#5a6b8c" opacity="0.16"/><circle cx="762.5" cy="261.7" r="0.4" fill="#5a6b8c" opacity="0.13"/><circle cx="828.4" cy="349.5" r="0.7" fill="#5a6b8c" opacity="0.13"/><circle cx="125.6" cy="405.8" r="0.4" fill="#5a6b8c" opacity="0.07"/><circle cx="95.4" cy="600.1" r="1.0" fill="#5a6b8c" opacity="0.14"/><circle cx="1125.2" cy="132.0" r="0.9" fill="#5a6b8c" opacity="0.12"/><circle cx="129.3" cy="363.7" r="0.5" fill="#5a6b8c" opacity="0.09"/><circle cx="171.1" cy="154.7" r="1.0" fill="#5a6b8c" opacity="0.12"/><circle cx="659.4" cy="91.0" r="0.5" fill="#5a6b8c" opacity="0.07"/><circle cx="841.6" cy="364.5" r="0.9" fill="#5a6b8c" opacity="0.14"/><circle cx="301.3" cy="251.1" r="0.7" fill="#5a6b8c" opacity="0.19"/><circle cx="843.5" cy="524.4" r="0.9" fill="#5a6b8c" opacity="0.19"/><circle cx="917.5" cy="0.2" r="0.5" fill="#5a6b8c" opacity="0.06"/><circle cx="1072.2" cy="132.3" r="0.7" fill="#5a6b8c" opacity="0.14"/><circle cx="268.9" cy="173.9" r="1.0" fill="#5a6b8c" opacity="0.08"/><circle cx="998.1" cy="295.3" r="0.9" fill="#5a6b8c" opacity="0.11"/><circle cx="814.2" cy="443.8" r="0.7" fill="#5a6b8c" opacity="0.09"/><circle cx="515.4" cy="469.7" r="0.4" fill="#5a6b8c" opacity="0.08"/><circle cx="420.9" cy="439.2" r="0.8" fill="#5a6b8c" opacity="0.08"/><circle cx="1054.4" cy="362.1" r="1.0" fill="#5a6b8c" opacity="0.11"/><circle cx="1140.5" cy="366.0" r="0.6" fill="#5a6b8c" opacity="0.07"/><circle cx="960.6" cy="109.8" r="1.0" fill="#5a6b8c" opacity="0.17"/><circle cx="158.7" cy="458.5" r="0.9" fill="#5a6b8c" opacity="0.06"/><circle cx="911.1" cy="598.3" r="0.6" fill="#5a6b8c" opacity="0.13"/><circle cx="492.6" cy="150.3" r="0.5" fill="#5a6b8c" opacity="0.15"/><circle cx="1161.0" cy="79.9" r="0.4" fill="#5a6b8c" opacity="0.13"/><circle cx="318.4" cy="547.0" r="0.6" fill="#5a6b8c" opacity="0.05"/><circle cx="372.3" cy="258.6" r="0.7" fill="#5a6b8c" opacity="0.11"/><circle cx="341.9" cy="606.8" r="0.4" fill="#5a6b8c" opacity="0.08"/><circle cx="983.8" cy="126.9" r="0.5" fill="#5a6b8c" opacity="0.11"/><circle cx="758.6" cy="519.4" r="1.0" fill="#5a6b8c" opacity="0.08"/><circle cx="1118.4" cy="110.3" r="1.0" fill="#5a6b8c" opacity="0.18"/><circle cx="138.5" cy="238.5" r="0.5" fill="#5a6b8c" opacity="0.12"/><circle cx="938.7" cy="505.8" r="0.9" fill="#5a6b8c" opacity="0.05"/><circle cx="347.6" cy="581.5" r="0.9" fill="#5a6b8c" opacity="0.16"/><circle cx="208.8" cy="98.2" r="0.7" fill="#5a6b8c" opacity="0.14"/><circle cx="149.5" cy="551.0" r="0.8" fill="#5a6b8c" opacity="0.19"/><circle cx="1087.6" cy="251.9" r="0.6" fill="#5a6b8c" opacity="0.18"/><circle cx="597.0" cy="378.2" r="0.9" fill="#5a6b8c" opacity="0.20"/><circle cx="617.8" cy="288.9" r="1.0" fill="#5a6b8c" opacity="0.06"/><circle cx="526.1" cy="138.2" r="0.8" fill="#5a6b8c" opacity="0.17"/><circle cx="511.1" cy="130.8" r="0.5" fill="#5a6b8c" opacity="0.19"/><circle cx="702.5" cy="589.3" r="0.6" fill="#5a6b8c" opacity="0.09"/><circle cx="215.7" cy="401.7" r="0.8" fill="#5a6b8c" opacity="0.18"/><circle cx="707.0" cy="210.6" r="0.5" fill="#5a6b8c" opacity="0.17"/><circle cx="1138.0" cy="206.7" r="0.6" fill="#5a6b8c" opacity="0.13"/><circle cx="450.4" cy="469.1" r="0.7" fill="#5a6b8c" opacity="0.12"/><circle cx="453.1" cy="158.0" r="1.0" fill="#5a6b8c" opacity="0.19"/><circle cx="251.7" cy="236.8" r="0.9" fill="#5a6b8c" opacity="0.10"/><circle cx="529.9" cy="355.4" r="0.6" fill="#5a6b8c" opacity="0.11"/><circle cx="861.9" cy="591.7" r="0.4" fill="#5a6b8c" opacity="0.18"/><circle cx="104.5" cy="414.6" r="0.4" fill="#5a6b8c" opacity="0.13"/><circle cx="274.5" cy="509.5" r="0.4" fill="#5a6b8c" opacity="0.13"/><circle cx="1153.1" cy="334.9" r="0.7" fill="#5a6b8c" opacity="0.15"/><circle cx="952.9" cy="431.9" r="0.7" fill="#5a6b8c" opacity="0.08"/><circle cx="939.2" cy="317.2" r="1.1" fill="#5a6b8c" opacity="0.10"/><circle cx="368.0" cy="293.6" r="1.1" fill="#5a6b8c" opacity="0.17"/><circle cx="353.3" cy="436.2" r="1.0" fill="#5a6b8c" opacity="0.06"/><circle cx="895.8" cy="299.1" r="1.0" fill="#5a6b8c" opacity="0.16"/><circle cx="439.2" cy="51.1" r="0.7" fill="#5a6b8c" opacity="0.11"/><circle cx="244.5" cy="433.4" r="1.0" fill="#5a6b8c" opacity="0.12"/><circle cx="139.0" cy="352.4" r="0.6" fill="#5a6b8c" opacity="0.06"/><circle cx="116.6" cy="245.0" r="0.4" fill="#5a6b8c" opacity="0.07"/><circle cx="1135.0" cy="336.3" r="0.5" fill="#5a6b8c" opacity="0.06"/><circle cx="343.7" cy="203.8" r="1.1" fill="#5a6b8c" opacity="0.08"/><circle cx="1104.3" cy="316.6" r="1.0" fill="#5a6b8c" opacity="0.13"/><circle cx="1151.4" cy="604.8" r="0.8" fill="#5a6b8c" opacity="0.10"/><circle cx="356.7" cy="103.1" r="0.6" fill="#5a6b8c" opacity="0.14"/><circle cx="500.2" cy="340.3" r="1.1" fill="#5a6b8c" opacity="0.16"/><circle cx="1120.6" cy="482.0" r="0.6" fill="#5a6b8c" opacity="0.06"/><circle cx="840.0" cy="92.4" r="0.9" fill="#5a6b8c" opacity="0.06"/><circle cx="695.2" cy="332.5" r="0.7" fill="#5a6b8c" opacity="0.17"/><circle cx="839.6" cy="139.2" r="0.7" fill="#5a6b8c" opacity="0.11"/><circle cx="464.5" cy="143.0" r="0.6" fill="#5a6b8c" opacity="0.14"/><circle cx="74.6" cy="270.3" r="0.7" fill="#5a6b8c" opacity="0.12"/><circle cx="829.8" cy="507.1" r="0.8" fill="#5a6b8c" opacity="0.07"/><line x1="809.6" y1="309.5" x2="629.7" y2="527.3" stroke="#00e660" stroke-width="1.6" opacity="0.5"/><line x1="655.9" y1="378.7" x2="629.7" y2="527.3" stroke="#00e660" stroke-width="1.6" opacity="0.5"/><line x1="755.7" y1="348.5" x2="629.7" y2="527.3" stroke="#00e660" stroke-width="1.6" opacity="0.5"/><line x1="863.2" y1="516.7" x2="809.6" y2="309.5" stroke="#00e660" stroke-width="1.6" opacity="0.5"/><line x1="1001.2" y1="517.4" x2="809.6" y2="309.5" stroke="#b48bff" stroke-width="1.6" opacity="0.5"/><line x1="1061.4" y1="114.9" x2="755.7" y2="348.5" stroke="#00e660" stroke-width="1.6" opacity="0.5"/><line x1="900.9" y1="203.9" x2="1061.4" y2="114.9" stroke="#00e660" stroke-width="1.6" opacity="0.5"/><line x1="731.7" y1="321.8" x2="1061.4" y2="114.9" stroke="#00e660" stroke-width="1.6" opacity="0.5"/><line x1="843.4" y1="354.2" x2="731.7" y2="321.8" stroke="#00e660" stroke-width="1.6" opacity="0.5"/><line x1="791.8" y1="122.7" x2="731.7" y2="321.8" stroke="#b48bff" stroke-width="1.6" opacity="0.5"/><line x1="1129.9" y1="87.9" x2="843.4" y2="354.2" stroke="#b48bff" stroke-width="1.6" opacity="0.5"/><line x1="1106.8" y1="553.9" x2="731.7" y2="321.8" stroke="#00e660" stroke-width="1.6" opacity="0.5"/><line x1="932.4" y1="173.4" x2="1106.8" y2="553.9" stroke="#00e660" stroke-width="1.6" opacity="0.5"/><line x1="955.1" y1="233.6" x2="791.8" y2="122.7" stroke="#b48bff" stroke-width="1.6" opacity="0.5"/><line x1="742.7" y1="485.8" x2="932.4" y2="173.4" stroke="#00e660" stroke-width="1.6" opacity="0.5"/><line x1="969.8" y1="81.9" x2="955.1" y2="233.6" stroke="#00e660" stroke-width="1.6" opacity="0.5"/><line x1="1104.1" y1="262.5" x2="955.1" y2="233.6" stroke="#00e660" stroke-width="1.6" opacity="0.5"/><line x1="705.1" y1="260.1" x2="969.8" y2="81.9" stroke="#00e660" stroke-width="1.6" opacity="0.5"/><line x1="647.1" y1="279.3" x2="742.7" y2="485.8" stroke="#00e660" stroke-width="1.6" opacity="0.5"/><line x1="1040.9" y1="549.6" x2="969.8" y2="81.9" stroke="#b48bff" stroke-width="1.6" opacity="0.5"/><line x1="1042.7" y1="385.3" x2="1040.9" y2="549.6" stroke="#b48bff" stroke-width="1.6" opacity="0.5"/><line x1="783.7" y1="304.1" x2="1042.7" y2="385.3" stroke="#b48bff" stroke-width="1.6" opacity="0.5"/><line x1="612.9" y1="193.6" x2="647.1" y2="279.3" stroke="#00e660" stroke-width="1.6" opacity="0.5"/><line x1="548.9" y1="450.0" x2="612.9" y2="193.6" stroke="#00e660" stroke-width="1.6" opacity="0.5"/><line x1="585.0" y1="157.5" x2="612.9" y2="193.6" stroke="#b48bff" stroke-width="1.6" opacity="0.5"/><line x1="784.3" y1="467.9" x2="548.9" y2="450.0" stroke="#b48bff" stroke-width="1.6" opacity="0.5"/><line x1="566.0" y1="439.4" x2="585.0" y2="157.5" stroke="#b48bff" stroke-width="1.6" opacity="0.5"/><line x1="705.4" y1="267.7" x2="566.0" y2="439.4" stroke="#00e660" stroke-width="1.6" opacity="0.5"/><line x1="799.1" y1="554.1" x2="566.0" y2="439.4" stroke="#00e660" stroke-width="1.6" opacity="0.5"/><line x1="1136.8" y1="199.6" x2="566.0" y2="439.4" stroke="#00e660" stroke-width="1.6" opacity="0.5"/><line x1="892.2" y1="230.3" x2="705.4" y2="267.7" stroke="#00e660" stroke-width="1.6" opacity="0.5"/><line x1="723.2" y1="473.3" x2="892.2" y2="230.3" stroke="#00e660" stroke-width="1.6" opacity="0.5"/><line x1="919.3" y1="330.7" x2="892.2" y2="230.3" stroke="#00e660" stroke-width="1.6" opacity="0.5"/><line x1="708.8" y1="254.7" x2="1136.8" y2="199.6" stroke="#00e660" stroke-width="1.6" opacity="0.5"/><line x1="811.3" y1="472.2" x2="708.8" y2="254.7" stroke="#00e660" stroke-width="1.6" opacity="0.5"/><line x1="684.9" y1="348.4" x2="919.3" y2="330.7" stroke="#b48bff" stroke-width="1.6" opacity="0.5"/><line x1="1011.5" y1="97.4" x2="708.8" y2="254.7" stroke="#00e660" stroke-width="1.6" opacity="0.5"/><line x1="661.1" y1="444.0" x2="1011.5" y2="97.4" stroke="#00e660" stroke-width="1.6" opacity="0.5"/><line x1="563.2" y1="533.8" x2="811.3" y2="472.2" stroke="#b48bff" stroke-width="1.6" opacity="0.5"/><line x1="788.9" y1="379.7" x2="661.1" y2="444.0" stroke="#b48bff" stroke-width="1.6" opacity="0.5"/><line x1="587.5" y1="288.1" x2="661.1" y2="444.0" stroke="#b48bff" stroke-width="1.6" opacity="0.5"/><line x1="809.5" y1="451.6" x2="563.2" y2="533.8" stroke="#b48bff" stroke-width="1.6" opacity="0.5"/><line x1="888.7" y1="143.3" x2="587.5" y2="288.1" stroke="#b48bff" stroke-width="1.6" opacity="0.5"/><line x1="569.2" y1="197.8" x2="809.5" y2="451.6" stroke="#00e660" stroke-width="1.6" opacity="0.5"/><line x1="881.2" y1="126.5" x2="587.5" y2="288.1" stroke="#00e660" stroke-width="1.6" opacity="0.5"/><circle cx="629.7" cy="527.3" r="14.8" fill="#00d4ff" opacity="0.033"/><circle cx="629.7" cy="527.3" r="9.1" fill="#00d4ff" opacity="0.067"/><circle cx="629.7" cy="527.3" r="3.4" fill="#00d4ff" opacity="0.100"/><circle cx="629.7" cy="527.3" r="3.4" fill="#00d4ff"/><circle cx="809.6" cy="309.5" r="15.8" fill="#00d4ff" opacity="0.033"/><circle cx="809.6" cy="309.5" r="9.7" fill="#00d4ff" opacity="0.067"/><circle cx="809.6" cy="309.5" r="3.6" fill="#00d4ff" opacity="0.100"/><circle cx="809.6" cy="309.5" r="3.6" fill="#00d4ff"/><circle cx="655.9" cy="378.7" r="12.4" fill="#00d4ff" opacity="0.033"/><circle cx="655.9" cy="378.7" r="7.6" fill="#00d4ff" opacity="0.067"/><circle cx="655.9" cy="378.7" r="2.8" fill="#00d4ff" opacity="0.100"/><circle cx="655.9" cy="378.7" r="2.8" fill="#00d4ff"/><circle cx="755.7" cy="348.5" r="12.5" fill="#00d4ff" opacity="0.033"/><circle cx="755.7" cy="348.5" r="7.6" fill="#00d4ff" opacity="0.067"/><circle cx="755.7" cy="348.5" r="2.8" fill="#00d4ff" opacity="0.100"/><circle cx="755.7" cy="348.5" r="2.8" fill="#00d4ff"/><circle cx="863.2" cy="516.7" r="11.5" fill="#00d4ff" opacity="0.033"/><circle cx="863.2" cy="516.7" r="7.1" fill="#00d4ff" opacity="0.067"/><circle cx="863.2" cy="516.7" r="2.6" fill="#00d4ff" opacity="0.100"/><circle cx="863.2" cy="516.7" r="2.6" fill="#00d4ff"/><circle cx="1001.2" cy="517.4" r="11.5" fill="#00d4ff" opacity="0.033"/><circle cx="1001.2" cy="517.4" r="7.1" fill="#00d4ff" opacity="0.067"/><circle cx="1001.2" cy="517.4" r="2.6" fill="#00d4ff" opacity="0.100"/><circle cx="1001.2" cy="517.4" r="2.6" fill="#00d4ff"/><circle cx="1061.4" cy="114.9" r="15.0" fill="#00d4ff" opacity="0.033"/><circle cx="1061.4" cy="114.9" r="9.2" fill="#00d4ff" opacity="0.067"/><circle cx="1061.4" cy="114.9" r="3.4" fill="#00d4ff" opacity="0.100"/><circle cx="1061.4" cy="114.9" r="3.4" fill="#00d4ff"/><circle cx="900.9" cy="203.9" r="11.4" fill="#00d4ff" opacity="0.033"/><circle cx="900.9" cy="203.9" r="7.0" fill="#00d4ff" opacity="0.067"/><circle cx="900.9" cy="203.9" r="2.6" fill="#00d4ff" opacity="0.100"/><circle cx="900.9" cy="203.9" r="2.6" fill="#00d4ff"/><circle cx="731.7" cy="321.8" r="10.1" fill="#00d4ff" opacity="0.033"/><circle cx="731.7" cy="321.8" r="6.2" fill="#00d4ff" opacity="0.067"/><circle cx="731.7" cy="321.8" r="2.3" fill="#00d4ff" opacity="0.100"/><circle cx="731.7" cy="321.8" r="2.3" fill="#00d4ff"/><circle cx="843.4" cy="354.2" r="14.5" fill="#00d4ff" opacity="0.033"/><circle cx="843.4" cy="354.2" r="8.9" fill="#00d4ff" opacity="0.067"/><circle cx="843.4" cy="354.2" r="3.3" fill="#00d4ff" opacity="0.100"/><circle cx="843.4" cy="354.2" r="3.3" fill="#00d4ff"/><circle cx="791.8" cy="122.7" r="12.7" fill="#00d4ff" opacity="0.033"/><circle cx="791.8" cy="122.7" r="7.8" fill="#00d4ff" opacity="0.067"/><circle cx="791.8" cy="122.7" r="2.9" fill="#00d4ff" opacity="0.100"/><circle cx="791.8" cy="122.7" r="2.9" fill="#00d4ff"/><circle cx="1129.9" cy="87.9" r="15.8" fill="#00d4ff" opacity="0.033"/><circle cx="1129.9" cy="87.9" r="9.7" fill="#00d4ff" opacity="0.067"/><circle cx="1129.9" cy="87.9" r="3.6" fill="#00d4ff" opacity="0.100"/><circle cx="1129.9" cy="87.9" r="3.6" fill="#00d4ff"/><circle cx="1106.8" cy="553.9" r="14.4" fill="#00d4ff" opacity="0.033"/><circle cx="1106.8" cy="553.9" r="8.8" fill="#00d4ff" opacity="0.067"/><circle cx="1106.8" cy="553.9" r="3.3" fill="#00d4ff" opacity="0.100"/><circle cx="1106.8" cy="553.9" r="3.3" fill="#00d4ff"/><circle cx="932.4" cy="173.4" r="11.1" fill="#00d4ff" opacity="0.033"/><circle cx="932.4" cy="173.4" r="6.8" fill="#00d4ff" opacity="0.067"/><circle cx="932.4" cy="173.4" r="2.5" fill="#00d4ff" opacity="0.100"/><circle cx="932.4" cy="173.4" r="2.5" fill="#00d4ff"/><circle cx="955.1" cy="233.6" r="10.6" fill="#00d4ff" opacity="0.033"/><circle cx="955.1" cy="233.6" r="6.5" fill="#00d4ff" opacity="0.067"/><circle cx="955.1" cy="233.6" r="2.4" fill="#00d4ff" opacity="0.100"/><circle cx="955.1" cy="233.6" r="2.4" fill="#00d4ff"/><circle cx="742.7" cy="485.8" r="10.8" fill="#00d4ff" opacity="0.033"/><circle cx="742.7" cy="485.8" r="6.6" fill="#00d4ff" opacity="0.067"/><circle cx="742.7" cy="485.8" r="2.4" fill="#00d4ff" opacity="0.100"/><circle cx="742.7" cy="485.8" r="2.4" fill="#00d4ff"/><circle cx="969.8" cy="81.9" r="14.0" fill="#00d4ff" opacity="0.033"/><circle cx="969.8" cy="81.9" r="8.6" fill="#00d4ff" opacity="0.067"/><circle cx="969.8" cy="81.9" r="3.2" fill="#00d4ff" opacity="0.100"/><circle cx="969.8" cy="81.9" r="3.2" fill="#00d4ff"/><circle cx="1104.1" cy="262.5" r="11.9" fill="#00d4ff" opacity="0.033"/><circle cx="1104.1" cy="262.5" r="7.3" fill="#00d4ff" opacity="0.067"/><circle cx="1104.1" cy="262.5" r="2.7" fill="#00d4ff" opacity="0.100"/><circle cx="1104.1" cy="262.5" r="2.7" fill="#00d4ff"/><circle cx="705.1" cy="260.1" r="12.4" fill="#00d4ff" opacity="0.033"/><circle cx="705.1" cy="260.1" r="7.6" fill="#00d4ff" opacity="0.067"/><circle cx="705.1" cy="260.1" r="2.8" fill="#00d4ff" opacity="0.100"/><circle cx="705.1" cy="260.1" r="2.8" fill="#00d4ff"/><circle cx="647.1" cy="279.3" r="13.0" fill="#00d4ff" opacity="0.033"/><circle cx="647.1" cy="279.3" r="8.0" fill="#00d4ff" opacity="0.067"/><circle cx="647.1" cy="279.3" r="2.9" fill="#00d4ff" opacity="0.100"/><circle cx="647.1" cy="279.3" r="2.9" fill="#00d4ff"/><circle cx="1040.9" cy="549.6" r="12.7" fill="#00d4ff" opacity="0.033"/><circle cx="1040.9" cy="549.6" r="7.8" fill="#00d4ff" opacity="0.067"/><circle cx="1040.9" cy="549.6" r="2.9" fill="#00d4ff" opacity="0.100"/><circle cx="1040.9" cy="549.6" r="2.9" fill="#00d4ff"/><circle cx="1042.7" cy="385.3" r="13.7" fill="#00d4ff" opacity="0.033"/><circle cx="1042.7" cy="385.3" r="8.4" fill="#00d4ff" opacity="0.067"/><circle cx="1042.7" cy="385.3" r="3.1" fill="#00d4ff" opacity="0.100"/><circle cx="1042.7" cy="385.3" r="3.1" fill="#00d4ff"/><circle cx="783.7" cy="304.1" r="12.7" fill="#00d4ff" opacity="0.033"/><circle cx="783.7" cy="304.1" r="7.8" fill="#00d4ff" opacity="0.067"/><circle cx="783.7" cy="304.1" r="2.9" fill="#00d4ff" opacity="0.100"/><circle cx="783.7" cy="304.1" r="2.9" fill="#00d4ff"/><circle cx="612.9" cy="193.6" r="11.9" fill="#00d4ff" opacity="0.033"/><circle cx="612.9" cy="193.6" r="7.3" fill="#00d4ff" opacity="0.067"/><circle cx="612.9" cy="193.6" r="2.7" fill="#00d4ff" opacity="0.100"/><circle cx="612.9" cy="193.6" r="2.7" fill="#00d4ff"/><circle cx="548.9" cy="450.0" r="11.0" fill="#00d4ff" opacity="0.033"/><circle cx="548.9" cy="450.0" r="6.7" fill="#00d4ff" opacity="0.067"/><circle cx="548.9" cy="450.0" r="2.5" fill="#00d4ff" opacity="0.100"/><circle cx="548.9" cy="450.0" r="2.5" fill="#00d4ff"/><circle cx="585.0" cy="157.5" r="13.0" fill="#00d4ff" opacity="0.033"/><circle cx="585.0" cy="157.5" r="8.0" fill="#00d4ff" opacity="0.067"/><circle cx="585.0" cy="157.5" r="3.0" fill="#00d4ff" opacity="0.100"/><circle cx="585.0" cy="157.5" r="3.0" fill="#00d4ff"/><circle cx="784.3" cy="467.9" r="10.2" fill="#00d4ff" opacity="0.033"/><circle cx="784.3" cy="467.9" r="6.2" fill="#00d4ff" opacity="0.067"/><circle cx="784.3" cy="467.9" r="2.3" fill="#00d4ff" opacity="0.100"/><circle cx="784.3" cy="467.9" r="2.3" fill="#00d4ff"/><circle cx="566.0" cy="439.4" r="11.8" fill="#00d4ff" opacity="0.033"/><circle cx="566.0" cy="439.4" r="7.3" fill="#00d4ff" opacity="0.067"/><circle cx="566.0" cy="439.4" r="2.7" fill="#00d4ff" opacity="0.100"/><circle cx="566.0" cy="439.4" r="2.7" fill="#00d4ff"/><circle cx="705.4" cy="267.7" r="12.3" fill="#00d4ff" opacity="0.033"/><circle cx="705.4" cy="267.7" r="7.5" fill="#00d4ff" opacity="0.067"/><circle cx="705.4" cy="267.7" r="2.8" fill="#00d4ff" opacity="0.100"/><circle cx="705.4" cy="267.7" r="2.8" fill="#00d4ff"/><circle cx="799.1" cy="554.1" r="10.1" fill="#00d4ff" opacity="0.033"/><circle cx="799.1" cy="554.1" r="6.2" fill="#00d4ff" opacity="0.067"/><circle cx="799.1" cy="554.1" r="2.3" fill="#00d4ff" opacity="0.100"/><circle cx="799.1" cy="554.1" r="2.3" fill="#00d4ff"/><circle cx="1136.8" cy="199.6" r="13.3" fill="#00d4ff" opacity="0.033"/><circle cx="1136.8" cy="199.6" r="8.2" fill="#00d4ff" opacity="0.067"/><circle cx="1136.8" cy="199.6" r="3.0" fill="#00d4ff" opacity="0.100"/><circle cx="1136.8" cy="199.6" r="3.0" fill="#00d4ff"/><circle cx="892.2" cy="230.3" r="13.3" fill="#00d4ff" opacity="0.033"/><circle cx="892.2" cy="230.3" r="8.1" fill="#00d4ff" opacity="0.067"/><circle cx="892.2" cy="230.3" r="3.0" fill="#00d4ff" opacity="0.100"/><circle cx="892.2" cy="230.3" r="3.0" fill="#00d4ff"/><circle cx="723.2" cy="473.3" r="10.9" fill="#00d4ff" opacity="0.033"/><circle cx="723.2" cy="473.3" r="6.7" fill="#00d4ff" opacity="0.067"/><circle cx="723.2" cy="473.3" r="2.5" fill="#00d4ff" opacity="0.100"/><circle cx="723.2" cy="473.3" r="2.5" fill="#00d4ff"/><circle cx="919.3" cy="330.7" r="12.2" fill="#00d4ff" opacity="0.033"/><circle cx="919.3" cy="330.7" r="7.5" fill="#00d4ff" opacity="0.067"/><circle cx="919.3" cy="330.7" r="2.8" fill="#00d4ff" opacity="0.100"/><circle cx="919.3" cy="330.7" r="2.8" fill="#00d4ff"/><circle cx="708.8" cy="254.7" r="12.4" fill="#00d4ff" opacity="0.033"/><circle cx="708.8" cy="254.7" r="7.6" fill="#00d4ff" opacity="0.067"/><circle cx="708.8" cy="254.7" r="2.8" fill="#00d4ff" opacity="0.100"/><circle cx="708.8" cy="254.7" r="2.8" fill="#00d4ff"/><circle cx="811.3" cy="472.2" r="13.3" fill="#00d4ff" opacity="0.033"/><circle cx="811.3" cy="472.2" r="8.2" fill="#00d4ff" opacity="0.067"/><circle cx="811.3" cy="472.2" r="3.0" fill="#00d4ff" opacity="0.100"/><circle cx="811.3" cy="472.2" r="3.0" fill="#00d4ff"/><circle cx="684.9" cy="348.4" r="9.9" fill="#00d4ff" opacity="0.033"/><circle cx="684.9" cy="348.4" r="6.1" fill="#00d4ff" opacity="0.067"/><circle cx="684.9" cy="348.4" r="2.3" fill="#00d4ff" opacity="0.100"/><circle cx="684.9" cy="348.4" r="2.3" fill="#00d4ff"/><circle cx="1011.5" cy="97.4" r="10.0" fill="#00d4ff" opacity="0.033"/><circle cx="1011.5" cy="97.4" r="6.1" fill="#00d4ff" opacity="0.067"/><circle cx="1011.5" cy="97.4" r="2.3" fill="#00d4ff" opacity="0.100"/><circle cx="1011.5" cy="97.4" r="2.3" fill="#00d4ff"/><circle cx="661.1" cy="444.0" r="15.0" fill="#00d4ff" opacity="0.033"/><circle cx="661.1" cy="444.0" r="9.2" fill="#00d4ff" opacity="0.067"/><circle cx="661.1" cy="444.0" r="3.4" fill="#00d4ff" opacity="0.100"/><circle cx="661.1" cy="444.0" r="3.4" fill="#00d4ff"/><circle cx="563.2" cy="533.8" r="10.8" fill="#00d4ff" opacity="0.033"/><circle cx="563.2" cy="533.8" r="6.6" fill="#00d4ff" opacity="0.067"/><circle cx="563.2" cy="533.8" r="2.5" fill="#00d4ff" opacity="0.100"/><circle cx="563.2" cy="533.8" r="2.5" fill="#00d4ff"/><circle cx="788.9" cy="379.7" r="10.6" fill="#00d4ff" opacity="0.033"/><circle cx="788.9" cy="379.7" r="6.5" fill="#00d4ff" opacity="0.067"/><circle cx="788.9" cy="379.7" r="2.4" fill="#00d4ff" opacity="0.100"/><circle cx="788.9" cy="379.7" r="2.4" fill="#00d4ff"/><circle cx="587.5" cy="288.1" r="13.9" fill="#00d4ff" opacity="0.033"/><circle cx="587.5" cy="288.1" r="8.5" fill="#00d4ff" opacity="0.067"/><circle cx="587.5" cy="288.1" r="3.2" fill="#00d4ff" opacity="0.100"/><circle cx="587.5" cy="288.1" r="3.2" fill="#00d4ff"/><circle cx="809.5" cy="451.6" r="13.3" fill="#00d4ff" opacity="0.033"/><circle cx="809.5" cy="451.6" r="8.2" fill="#00d4ff" opacity="0.067"/><circle cx="809.5" cy="451.6" r="3.0" fill="#00d4ff" opacity="0.100"/><circle cx="809.5" cy="451.6" r="3.0" fill="#00d4ff"/><circle cx="888.7" cy="143.3" r="12.0" fill="#00d4ff" opacity="0.033"/><circle cx="888.7" cy="143.3" r="7.4" fill="#00d4ff" opacity="0.067"/><circle cx="888.7" cy="143.3" r="2.7" fill="#00d4ff" opacity="0.100"/><circle cx="888.7" cy="143.3" r="2.7" fill="#00d4ff"/><circle cx="569.2" cy="197.8" r="15.8" fill="#00d4ff" opacity="0.033"/><circle cx="569.2" cy="197.8" r="9.7" fill="#00d4ff" opacity="0.067"/><circle cx="569.2" cy="197.8" r="3.6" fill="#00d4ff" opacity="0.100"/><circle cx="569.2" cy="197.8" r="3.6" fill="#00d4ff"/><circle cx="881.2" cy="126.5" r="11.5" fill="#00d4ff" opacity="0.033"/><circle cx="881.2" cy="126.5" r="7.0" fill="#00d4ff" opacity="0.067"/><circle cx="881.2" cy="126.5" r="2.6" fill="#00d4ff" opacity="0.100"/><circle cx="881.2" cy="126.5" r="2.6" fill="#00d4ff"/><circle cx="600.0" cy="315.0" r="660" fill="none" stroke="#070b16" stroke-width="120" opacity="0.00"/><circle cx="600.0" cy="315.0" r="768" fill="none" stroke="#070b16" stroke-width="120" opacity="0.06"/><circle cx="600.0" cy="315.0" r="876" fill="none" stroke="#070b16" stroke-width="120" opacity="0.12"/><circle cx="600.0" cy="315.0" r="984" fill="none" stroke="#070b16" stroke-width="120" opacity="0.18"/><circle cx="600.0" cy="315.0" r="1092" fill="none" stroke="#070b16" stroke-width="120" opacity="0.24"/><circle cx="600.0" cy="315.0" r="1200" fill="none" stroke="#070b16" stroke-width="120" opacity="0.30"/><text x="60" y="120" fill="#c8d4e8" font-size="62" font-weight="700" letter-spacing="2">LOW-BIT</text><text x="62" y="162" fill="#00d4ff" font-size="24" opacity="0.9">a ternary sci-fi &#183; part 3</text><text x="62" y="196" fill="#5a6b8c" font-size="17">the night the components merged</text></svg>