<svg xmlns="http://www.w3.org/2000/svg" viewBox="0 0 1000 460" width="1000" height="460" font-family="ui-monospace,Menlo,monospace"><rect width="1000" height="460" fill="#070b16"/><text x="50" y="52" fill="#c8d4e8" font-size="24" font-weight="700">the loop &#8212; it is only smart in its sleep</text><path d="M 500 100 Q 601 149 650 250" fill="none" stroke="#00d4ff" stroke-width="2" opacity="0.5"/><path d="M 650 250 Q 601 351 500 400" fill="none" stroke="#00d4ff" stroke-width="2" opacity="0.5"/><path d="M 500 400 Q 399 351 350 250" fill="none" stroke="#00d4ff" stroke-width="2" opacity="0.5"/><path d="M 350 250 Q 399 149 500 100" fill="none" stroke="#00d4ff" stroke-width="2" opacity="0.5"/><circle cx="500.0" cy="100.0" r="26.4" fill="#00d4ff" opacity="0.033"/><circle cx="500.0" cy="100.0" r="16.2" fill="#00d4ff" opacity="0.067"/><circle cx="500.0" cy="100.0" r="6.0" fill="#00d4ff" opacity="0.100"/><circle cx="500.0" cy="100.0" r="6.0" fill="#00d4ff"/><rect x="416.0" y="70.0" width="168" height="60" rx="12" fill="#0d1526" stroke="#00d4ff" stroke-width="1.6" opacity="0.96"/><text x="500.0" y="96.0" fill="#c8d4e8" font-size="19" text-anchor="middle" font-weight="700">WAKE</text><text x="500.0" y="118.0" fill="#5a6b8c" font-size="12" text-anchor="middle">ternary, certain, poor</text><circle cx="650.0" cy="250.0" r="26.4" fill="#00e660" opacity="0.033"/><circle cx="650.0" cy="250.0" r="16.2" fill="#00e660" opacity="0.067"/><circle cx="650.0" cy="250.0" r="6.0" fill="#00e660" opacity="0.100"/><circle cx="650.0" cy="250.0" r="6.0" fill="#00e660"/><rect x="566.0" y="220.0" width="168" height="60" rx="12" fill="#0d1526" stroke="#00e660" stroke-width="1.6" opacity="0.96"/><text x="650.0" y="246.0" fill="#c8d4e8" font-size="19" text-anchor="middle" font-weight="700">SPEAK</text><text x="650.0" y="268.0" fill="#5a6b8c" font-size="12" text-anchor="middle">one trit at a time</text><circle cx="500.0" cy="400.0" r="26.4" fill="#b48bff" opacity="0.033"/><circle cx="500.0" cy="400.0" r="16.2" fill="#b48bff" opacity="0.067"/><circle cx="500.0" cy="400.0" r="6.0" fill="#b48bff" opacity="0.100"/><circle cx="500.0" cy="400.0" r="6.0" fill="#b48bff"/><rect x="416.0" y="370.0" width="168" height="60" rx="12" fill="#0d1526" stroke="#b48bff" stroke-width="1.6" opacity="0.96"/><text x="500.0" y="396.0" fill="#c8d4e8" font-size="19" text-anchor="middle" font-weight="700">WRONG</text><text x="500.0" y="418.0" fill="#5a6b8c" font-size="12" text-anchor="middle">correction arrives</text><circle cx="350.0" cy="250.0" r="26.4" fill="#8fd0ff" opacity="0.033"/><circle cx="350.0" cy="250.0" r="16.2" fill="#8fd0ff" opacity="0.067"/><circle cx="350.0" cy="250.0" r="6.0" fill="#8fd0ff" opacity="0.100"/><circle cx="350.0" cy="250.0" r="6.0" fill="#8fd0ff"/><rect x="266.0" y="220.00000000000003" width="168" height="60" rx="12" fill="#0d1526" stroke="#8fd0ff" stroke-width="1.6" opacity="0.96"/><text x="350.0" y="246.00000000000003" fill="#c8d4e8" font-size="19" text-anchor="middle" font-weight="700">DREAM</text><text x="350.0" y="268.0" fill="#5a6b8c" font-size="12" text-anchor="middle">fp32 ghost, straight-through</text><text x="500" y="255" fill="#b48bff" font-size="16" text-anchor="middle" opacity="0.8">re-quantize</text><text x="500" y="276" fill="#5a6b8c" font-size="12" text-anchor="middle">throw the ghost away</text></svg>