<svg xmlns="http://www.w3.org/2000/svg" viewBox="0 0 1000 480" width="1000" height="480" font-family="ui-monospace,Menlo,monospace"><rect width="1000" height="480" fill="#070b16"/><circle cx="677.1" cy="376.8" r="0.7" fill="#5a6b8c" opacity="0.18"/><circle cx="511.5" cy="188.9" r="1.0" fill="#5a6b8c" opacity="0.18"/><circle cx="289.4" cy="71.2" r="0.6" fill="#5a6b8c" opacity="0.18"/><circle cx="260.4" cy="157.1" r="0.6" fill="#5a6b8c" opacity="0.18"/><circle cx="107.6" cy="156.2" r="0.6" fill="#5a6b8c" opacity="0.18"/><circle cx="569.2" cy="96.8" r="0.4" fill="#5a6b8c" opacity="0.18"/><circle cx="202.6" cy="260.4" r="0.6" fill="#5a6b8c" opacity="0.18"/><circle cx="733.5" cy="385.5" r="0.6" fill="#5a6b8c" opacity="0.18"/><circle cx="99.4" cy="349.4" r="0.9" fill="#5a6b8c" opacity="0.18"/><circle cx="396.1" cy="316.0" r="0.6" fill="#5a6b8c" opacity="0.18"/><circle cx="914.9" cy="400.2" r="0.9" fill="#5a6b8c" opacity="0.18"/><circle cx="953.9" cy="111.8" r="0.7" fill="#5a6b8c" opacity="0.18"/><circle cx="731.4" cy="384.7" r="0.6" fill="#5a6b8c" opacity="0.18"/><circle cx="138.5" cy="300.6" r="0.5" fill="#5a6b8c" opacity="0.18"/><circle cx="705.4" cy="3.3" r="0.7" fill="#5a6b8c" opacity="0.18"/><circle cx="479.8" cy="57.5" r="0.7" fill="#5a6b8c" opacity="0.18"/><circle cx="500.1" cy="177.2" r="0.9" fill="#5a6b8c" opacity="0.18"/><circle cx="866.1" cy="427.5" r="0.5" fill="#5a6b8c" opacity="0.18"/><circle cx="25.9" cy="180.8" r="0.5" fill="#5a6b8c" opacity="0.18"/><circle cx="705.2" cy="126.2" r="0.5" fill="#5a6b8c" opacity="0.18"/><circle cx="283.7" cy="193.6" r="0.8" fill="#5a6b8c" opacity="0.18"/><circle cx="461.0" cy="144.6" r="0.8" fill="#5a6b8c" opacity="0.18"/><circle cx="45.3" cy="100.4" r="0.8" fill="#5a6b8c" opacity="0.18"/><circle cx="752.0" cy="48.6" r="0.4" fill="#5a6b8c" opacity="0.18"/><circle cx="505.8" cy="315.1" r="0.4" fill="#5a6b8c" opacity="0.18"/><circle cx="436.8" cy="131.9" r="0.5" fill="#5a6b8c" opacity="0.18"/><circle cx="171.1" cy="137.2" r="0.7" fill="#5a6b8c" opacity="0.18"/><circle cx="112.2" cy="297.8" r="0.9" fill="#5a6b8c" opacity="0.18"/><circle cx="684.0" cy="32.6" r="0.8" fill="#5a6b8c" opacity="0.18"/><circle cx="633.9" cy="4.2" r="0.6" fill="#5a6b8c" opacity="0.18"/><circle cx="652.5" cy="456.1" r="1.0" fill="#5a6b8c" opacity="0.18"/><circle cx="569.5" cy="282.6" r="1.0" fill="#5a6b8c" opacity="0.18"/><circle cx="210.6" cy="244.4" r="0.4" fill="#5a6b8c" opacity="0.18"/><circle cx="774.6" cy="313.7" r="0.5" fill="#5a6b8c" opacity="0.18"/><circle cx="197.1" cy="251.4" r="0.9" fill="#5a6b8c" opacity="0.18"/><circle cx="135.9" cy="155.2" r="0.7" fill="#5a6b8c" opacity="0.18"/><circle cx="261.2" cy="424.5" r="0.8" fill="#5a6b8c" opacity="0.18"/><circle cx="955.4" cy="307.7" r="0.8" fill="#5a6b8c" opacity="0.18"/><circle cx="285.5" cy="242.3" r="0.7" fill="#5a6b8c" opacity="0.18"/><circle cx="478.5" cy="30.0" r="0.9" fill="#5a6b8c" opacity="0.18"/><circle cx="154.4" cy="220.0" r="1.0" fill="#5a6b8c" opacity="0.18"/><circle cx="513.0" cy="416.9" r="0.6" fill="#5a6b8c" opacity="0.18"/><circle cx="466.9" cy="182.0" r="0.6" fill="#5a6b8c" opacity="0.18"/><circle cx="369.4" cy="213.7" r="0.9" fill="#5a6b8c" opacity="0.18"/><circle cx="971.0" cy="45.4" r="0.8" fill="#5a6b8c" opacity="0.18"/><circle cx="528.8" cy="198.3" r="0.4" fill="#5a6b8c" opacity="0.18"/><circle cx="361.8" cy="152.2" r="0.6" fill="#5a6b8c" opacity="0.18"/><circle cx="593.5" cy="176.2" r="0.6" fill="#5a6b8c" opacity="0.18"/><circle cx="274.3" cy="469.1" r="0.6" fill="#5a6b8c" opacity="0.18"/><circle cx="972.9" cy="79.5" r="0.8" fill="#5a6b8c" opacity="0.18"/><circle cx="554.5" cy="340.7" r="0.7" fill="#5a6b8c" opacity="0.18"/><circle cx="873.9" cy="282.0" r="0.4" fill="#5a6b8c" opacity="0.18"/><circle cx="682.6" cy="294.3" r="0.5" fill="#5a6b8c" opacity="0.18"/><circle cx="730.7" cy="401.1" r="0.6" fill="#5a6b8c" opacity="0.18"/><circle cx="148.4" cy="138.8" r="0.8" fill="#5a6b8c" opacity="0.18"/><circle cx="444.1" cy="34.7" r="0.7" fill="#5a6b8c" opacity="0.18"/><circle cx="547.2" cy="277.8" r="0.6" fill="#5a6b8c" opacity="0.18"/><circle cx="785.3" cy="324.9" r="0.6" fill="#5a6b8c" opacity="0.18"/><circle cx="346.4" cy="444.2" r="0.5" fill="#5a6b8c" opacity="0.18"/><circle cx="447.5" cy="145.9" r="0.7" fill="#5a6b8c" opacity="0.18"/><circle cx="795.1" cy="59.3" r="0.5" fill="#5a6b8c" opacity="0.18"/><circle cx="63.8" cy="60.5" r="0.7" fill="#5a6b8c" opacity="0.18"/><circle cx="488.9" cy="453.8" r="0.7" fill="#5a6b8c" opacity="0.18"/><circle cx="525.4" cy="12.7" r="0.5" fill="#5a6b8c" opacity="0.18"/><circle cx="309.4" cy="117.0" r="0.9" fill="#5a6b8c" opacity="0.18"/><circle cx="417.0" cy="65.4" r="0.7" fill="#5a6b8c" opacity="0.18"/><circle cx="156.2" cy="89.3" r="0.8" fill="#5a6b8c" opacity="0.18"/><circle cx="86.0" cy="363.2" r="0.7" fill="#5a6b8c" opacity="0.18"/><circle cx="64.4" cy="323.5" r="1.0" fill="#5a6b8c" opacity="0.18"/><circle cx="738.5" cy="403.9" r="1.0" fill="#5a6b8c" opacity="0.18"/><circle cx="271.5" cy="233.4" r="0.8" fill="#5a6b8c" opacity="0.18"/><circle cx="396.9" cy="464.1" r="0.7" fill="#5a6b8c" opacity="0.18"/><circle cx="21.7" cy="45.6" r="0.7" fill="#5a6b8c" opacity="0.18"/><circle cx="18.9" cy="292.7" r="1.0" fill="#5a6b8c" opacity="0.18"/><circle cx="933.0" cy="473.6" r="0.5" fill="#5a6b8c" opacity="0.18"/><circle cx="180.3" cy="33.9" r="1.0" fill="#5a6b8c" opacity="0.18"/><circle cx="26.0" cy="34.8" r="0.8" fill="#5a6b8c" opacity="0.18"/><circle cx="947.7" cy="256.4" r="0.4" fill="#5a6b8c" opacity="0.18"/><circle cx="35.2" cy="393.4" r="0.8" fill="#5a6b8c" opacity="0.18"/><circle cx="310.4" cy="472.4" r="0.6" fill="#5a6b8c" opacity="0.18"/><circle cx="148.5" cy="463.8" r="0.4" fill="#5a6b8c" opacity="0.18"/><circle cx="362.8" cy="86.3" r="0.8" fill="#5a6b8c" opacity="0.18"/><circle cx="488.8" cy="121.0" r="0.8" fill="#5a6b8c" opacity="0.18"/><circle cx="106.9" cy="472.0" r="0.9" fill="#5a6b8c" opacity="0.18"/><circle cx="208.8" cy="286.1" r="0.6" fill="#5a6b8c" opacity="0.18"/><circle cx="574.8" cy="151.3" r="0.5" fill="#5a6b8c" opacity="0.18"/><circle cx="490.7" cy="34.4" r="1.0" fill="#5a6b8c" opacity="0.18"/><circle cx="787.8" cy="109.2" r="0.8" fill="#5a6b8c" opacity="0.18"/><circle cx="176.8" cy="80.1" r="0.6" fill="#5a6b8c" opacity="0.18"/><circle cx="716.0" cy="33.2" r="1.0" fill="#5a6b8c" opacity="0.18"/><circle cx="251.3" cy="78.8" r="0.7" fill="#5a6b8c" opacity="0.18"/><circle cx="905.1" cy="199.5" r="0.7" fill="#5a6b8c" opacity="0.18"/><circle cx="986.9" cy="253.1" r="0.6" fill="#5a6b8c" opacity="0.18"/><circle cx="189.3" cy="250.3" r="0.8" fill="#5a6b8c" opacity="0.18"/><circle cx="592.2" cy="92.9" r="0.4" fill="#5a6b8c" opacity="0.18"/><circle cx="965.5" cy="330.7" r="0.9" fill="#5a6b8c" opacity="0.18"/><circle cx="841.6" cy="204.3" r="0.5" fill="#5a6b8c" opacity="0.18"/><circle cx="963.5" cy="430.3" r="0.4" fill="#5a6b8c" opacity="0.18"/><circle cx="629.9" cy="240.2" r="0.4" fill="#5a6b8c" opacity="0.18"/><circle cx="568.8" cy="312.2" r="0.7" fill="#5a6b8c" opacity="0.18"/><circle cx="255.2" cy="425.5" r="0.8" fill="#5a6b8c" opacity="0.18"/><circle cx="278.6" cy="373.5" r="0.9" fill="#5a6b8c" opacity="0.18"/><circle cx="388.1" cy="275.3" r="0.5" fill="#5a6b8c" opacity="0.18"/><circle cx="132.5" cy="408.1" r="1.0" fill="#5a6b8c" opacity="0.18"/><circle cx="931.4" cy="71.5" r="0.8" fill="#5a6b8c" opacity="0.18"/><circle cx="392.4" cy="103.2" r="0.9" fill="#5a6b8c" opacity="0.18"/><circle cx="95.5" cy="39.0" r="0.6" fill="#5a6b8c" opacity="0.18"/><circle cx="146.1" cy="190.4" r="0.8" fill="#5a6b8c" opacity="0.18"/><circle cx="515.4" cy="442.1" r="0.7" fill="#5a6b8c" opacity="0.18"/><circle cx="144.8" cy="263.4" r="0.4" fill="#5a6b8c" opacity="0.18"/><circle cx="659.7" cy="76.3" r="0.7" fill="#5a6b8c" opacity="0.18"/><circle cx="438.3" cy="446.3" r="0.5" fill="#5a6b8c" opacity="0.18"/><circle cx="282.4" cy="157.7" r="0.7" fill="#5a6b8c" opacity="0.18"/><circle cx="386.4" cy="471.1" r="1.0" fill="#5a6b8c" opacity="0.18"/><circle cx="943.8" cy="321.4" r="0.9" fill="#5a6b8c" opacity="0.18"/><circle cx="550.8" cy="96.9" r="0.5" fill="#5a6b8c" opacity="0.18"/><circle cx="189.5" cy="368.3" r="0.8" fill="#5a6b8c" opacity="0.18"/><circle cx="34.3" cy="140.2" r="0.4" fill="#5a6b8c" opacity="0.18"/><circle cx="524.5" cy="163.9" r="0.7" fill="#5a6b8c" opacity="0.18"/><circle cx="369.9" cy="193.7" r="0.7" fill="#5a6b8c" opacity="0.18"/><circle cx="786.7" cy="33.0" r="0.9" fill="#5a6b8c" opacity="0.18"/><circle cx="585.2" cy="380.0" r="0.5" fill="#5a6b8c" opacity="0.18"/><circle cx="288.2" cy="435.5" r="1.0" fill="#5a6b8c" opacity="0.18"/><circle cx="273.2" cy="180.6" r="0.6" fill="#5a6b8c" opacity="0.18"/><circle cx="328.0" cy="455.1" r="0.7" fill="#5a6b8c" opacity="0.18"/><circle cx="425.4" cy="433.7" r="0.8" fill="#5a6b8c" opacity="0.18"/><circle cx="937.7" cy="311.8" r="0.7" fill="#5a6b8c" opacity="0.18"/><circle cx="78.7" cy="238.5" r="0.7" fill="#5a6b8c" opacity="0.18"/><circle cx="617.6" cy="406.6" r="0.6" fill="#5a6b8c" opacity="0.18"/><circle cx="549.6" cy="395.7" r="1.0" fill="#5a6b8c" opacity="0.18"/><circle cx="823.9" cy="126.5" r="0.9" fill="#5a6b8c" opacity="0.18"/><circle cx="673.5" cy="151.3" r="0.7" fill="#5a6b8c" opacity="0.18"/><circle cx="793.6" cy="387.7" r="0.5" fill="#5a6b8c" opacity="0.18"/><circle cx="488.5" cy="318.5" r="0.5" fill="#5a6b8c" opacity="0.18"/><circle cx="763.8" cy="379.1" r="0.7" fill="#5a6b8c" opacity="0.18"/><circle cx="955.5" cy="151.8" r="0.6" fill="#5a6b8c" opacity="0.18"/><circle cx="971.7" cy="295.5" r="0.4" fill="#5a6b8c" opacity="0.18"/><circle cx="433.3" cy="152.3" r="0.9" fill="#5a6b8c" opacity="0.18"/><circle cx="972.8" cy="65.6" r="0.8" fill="#5a6b8c" opacity="0.18"/><circle cx="855.4" cy="55.2" r="0.7" fill="#5a6b8c" opacity="0.18"/><text x="50" y="52" fill="#c8d4e8" font-size="24" font-weight="700">the mesh &#8212; trees wired by ultra-edges ===</text><line x1="120.0" y1="150.0" x2="330.0" y2="110.0" stroke="#00d4ff" stroke-width="7" opacity="0.15"/><line x1="119.4" y1="147.1" x2="329.4" y2="107.1" stroke="#00d4ff" stroke-width="1.6" opacity="0.9"/><line x1="120.6" y1="152.9" x2="330.6" y2="112.9" stroke="#00d4ff" stroke-width="1.6" opacity="0.9"/><line x1="330.0" y1="110.0" x2="560.0" y2="150.0" stroke="#00d4ff" stroke-width="7" opacity="0.15"/><line x1="330.5" y1="107.0" x2="560.5" y2="147.0" stroke="#00d4ff" stroke-width="1.6" opacity="0.9"/><line x1="329.5" y1="113.0" x2="559.5" y2="153.0" stroke="#00d4ff" stroke-width="1.6" opacity="0.9"/><line x1="560.0" y1="150.0" x2="600.0" y2="330.0" stroke="#00d4ff" stroke-width="7" opacity="0.15"/><line x1="562.9" y1="149.3" x2="602.9" y2="329.3" stroke="#00d4ff" stroke-width="1.6" opacity="0.9"/><line x1="557.1" y1="150.7" x2="597.1" y2="330.7" stroke="#00d4ff" stroke-width="1.6" opacity="0.9"/><line x1="120.0" y1="150.0" x2="330.0" y2="300.0" stroke="#00d4ff" stroke-width="7" opacity="0.15"/><line x1="121.7" y1="147.6" x2="331.7" y2="297.6" stroke="#00d4ff" stroke-width="1.6" opacity="0.9"/><line x1="118.3" y1="152.4" x2="328.3" y2="302.4" stroke="#00d4ff" stroke-width="1.6" opacity="0.9"/><line x1="330.0" y1="300.0" x2="600.0" y2="330.0" stroke="#00d4ff" stroke-width="7" opacity="0.15"/><line x1="330.3" y1="297.0" x2="600.3" y2="327.0" stroke="#00d4ff" stroke-width="1.6" opacity="0.9"/><line x1="329.7" y1="303.0" x2="599.7" y2="333.0" stroke="#00d4ff" stroke-width="1.6" opacity="0.9"/><line x1="600.0" y1="330.0" x2="820.0" y2="230.0" stroke="#00d4ff" stroke-width="7" opacity="0.15"/><line x1="598.8" y1="327.3" x2="818.8" y2="227.3" stroke="#00d4ff" stroke-width="1.6" opacity="0.9"/><line x1="601.2" y1="332.7" x2="821.2" y2="232.7" stroke="#00d4ff" stroke-width="1.6" opacity="0.9"/><line x1="330.0" y1="110.0" x2="820.0" y2="230.0" stroke="#00d4ff" stroke-width="7" opacity="0.15"/><line x1="330.7" y1="107.1" x2="820.7" y2="227.1" stroke="#00d4ff" stroke-width="1.6" opacity="0.9"/><line x1="329.3" y1="112.9" x2="819.3" y2="232.9" stroke="#00d4ff" stroke-width="1.6" opacity="0.9"/><circle cx="120.0" cy="150.0" r="17.6" fill="#b48bff" opacity="0.033"/><circle cx="120.0" cy="150.0" r="10.8" fill="#b48bff" opacity="0.067"/><circle cx="120.0" cy="150.0" r="4.0" fill="#b48bff" opacity="0.100"/><circle cx="120.0" cy="150.0" r="4.0" fill="#b48bff"/><rect x="68" y="124" width="104" height="52" rx="12" fill="#0d1526" stroke="#00d4ff" stroke-width="1.4" opacity="0.96"/><text x="120" y="155" fill="#c8d4e8" font-size="17" text-anchor="middle">embed</text><circle cx="330.0" cy="110.0" r="17.6" fill="#b48bff" opacity="0.033"/><circle cx="330.0" cy="110.0" r="10.8" fill="#b48bff" opacity="0.067"/><circle cx="330.0" cy="110.0" r="4.0" fill="#b48bff" opacity="0.100"/><circle cx="330.0" cy="110.0" r="4.0" fill="#b48bff"/><rect x="278" y="84" width="104" height="52" rx="12" fill="#0d1526" stroke="#00d4ff" stroke-width="1.4" opacity="0.96"/><text x="330" y="115" fill="#c8d4e8" font-size="17" text-anchor="middle">attn</text><circle cx="560.0" cy="150.0" r="17.6" fill="#b48bff" opacity="0.033"/><circle cx="560.0" cy="150.0" r="10.8" fill="#b48bff" opacity="0.067"/><circle cx="560.0" cy="150.0" r="4.0" fill="#b48bff" opacity="0.100"/><circle cx="560.0" cy="150.0" r="4.0" fill="#b48bff"/><rect x="508" y="124" width="104" height="52" rx="12" fill="#0d1526" stroke="#00d4ff" stroke-width="1.4" opacity="0.96"/><text x="560" y="155" fill="#c8d4e8" font-size="17" text-anchor="middle">mlp</text><circle cx="330.0" cy="300.0" r="17.6" fill="#b48bff" opacity="0.033"/><circle cx="330.0" cy="300.0" r="10.8" fill="#b48bff" opacity="0.067"/><circle cx="330.0" cy="300.0" r="4.0" fill="#b48bff" opacity="0.100"/><circle cx="330.0" cy="300.0" r="4.0" fill="#b48bff"/><rect x="278" y="274" width="104" height="52" rx="12" fill="#0d1526" stroke="#00d4ff" stroke-width="1.4" opacity="0.96"/><text x="330" y="305" fill="#c8d4e8" font-size="17" text-anchor="middle">moe</text><circle cx="600.0" cy="330.0" r="17.6" fill="#b48bff" opacity="0.033"/><circle cx="600.0" cy="330.0" r="10.8" fill="#b48bff" opacity="0.067"/><circle cx="600.0" cy="330.0" r="4.0" fill="#b48bff" opacity="0.100"/><circle cx="600.0" cy="330.0" r="4.0" fill="#b48bff"/><rect x="548" y="304" width="104" height="52" rx="12" fill="#0d1526" stroke="#00d4ff" stroke-width="1.4" opacity="0.96"/><text x="600" y="335" fill="#c8d4e8" font-size="17" text-anchor="middle">head</text><circle cx="820.0" cy="230.0" r="17.6" fill="#b48bff" opacity="0.033"/><circle cx="820.0" cy="230.0" r="10.8" fill="#b48bff" opacity="0.067"/><circle cx="820.0" cy="230.0" r="4.0" fill="#b48bff" opacity="0.100"/><circle cx="820.0" cy="230.0" r="4.0" fill="#b48bff"/><rect x="768" y="204" width="104" height="52" rx="12" fill="#0d1526" stroke="#00d4ff" stroke-width="1.4" opacity="0.96"/><text x="820" y="235" fill="#c8d4e8" font-size="17" text-anchor="middle">out</text><circle cx="500.0" cy="240.0" r="550" fill="none" stroke="#070b16" stroke-width="120" opacity="0.00"/><circle cx="500.0" cy="240.0" r="640" fill="none" stroke="#070b16" stroke-width="120" opacity="0.06"/><circle cx="500.0" cy="240.0" r="730" fill="none" stroke="#070b16" stroke-width="120" opacity="0.12"/><circle cx="500.0" cy="240.0" r="820" fill="none" stroke="#070b16" stroke-width="120" opacity="0.18"/><circle cx="500.0" cy="240.0" r="910" fill="none" stroke="#070b16" stroke-width="120" opacity="0.24"/><circle cx="500.0" cy="240.0" r="1000" fill="none" stroke="#070b16" stroke-width="120" opacity="0.30"/><text x="50" y="452" fill="#5a6b8c" font-size="15">each station is a whole ternary net. === carries a typed signal, not a weight.</text></svg>