<svg xmlns="http://www.w3.org/2000/svg" viewBox="0 0 1000 470" width="1000" height="470" font-family="ui-monospace,Menlo,monospace"><rect width="1000" height="470" fill="#070b16"/><text x="40" y="46" fill="#c8d4e8" font-size="22" font-weight="700">a giant component appears near p &#8776; 1/n</text><line x1="195.8" y1="283.3" x2="314.4" y2="371.2" stroke="#1b2740" stroke-width="1.4" opacity="0.4"/><line x1="74.5" y1="358.0" x2="268.6" y2="379.3" stroke="#1b2740" stroke-width="1.4" opacity="0.4"/><line x1="158.2" y1="165.0" x2="283.1" y2="186.3" stroke="#1b2740" stroke-width="1.4" opacity="0.4"/><line x1="408.5" y1="240.5" x2="204.3" y2="346.3" stroke="#00e660" stroke-width="1.4" opacity="0.7"/><line x1="408.5" y1="240.5" x2="361.2" y2="407.1" stroke="#00e660" stroke-width="1.4" opacity="0.7"/><line x1="287.3" y1="138.2" x2="166.9" y2="110.3" stroke="#1b2740" stroke-width="1.4" opacity="0.4"/><line x1="364.3" y1="241.3" x2="221.2" y2="389.4" stroke="#1b2740" stroke-width="1.4" opacity="0.4"/><line x1="116.2" y1="159.4" x2="361.2" y2="407.1" stroke="#00e660" stroke-width="1.4" opacity="0.7"/><line x1="268.6" y1="379.3" x2="360.3" y2="406.7" stroke="#1b2740" stroke-width="1.4" opacity="0.4"/><circle cx="150.9" cy="264.2" r="5.4" fill="#5a6b8c" opacity="0.050"/><circle cx="150.9" cy="264.2" r="2.0" fill="#5a6b8c" opacity="0.100"/><circle cx="150.9" cy="264.2" r="2.0" fill="#5a6b8c"/><circle cx="195.8" cy="283.3" r="5.4" fill="#5a6b8c" opacity="0.050"/><circle cx="195.8" cy="283.3" r="2.0" fill="#5a6b8c" opacity="0.100"/><circle cx="195.8" cy="283.3" r="2.0" fill="#5a6b8c"/><circle cx="282.7" cy="111.0" r="5.4" fill="#5a6b8c" opacity="0.050"/><circle cx="282.7" cy="111.0" r="2.0" fill="#5a6b8c" opacity="0.100"/><circle cx="282.7" cy="111.0" r="2.0" fill="#5a6b8c"/><circle cx="74.5" cy="358.0" r="5.4" fill="#5a6b8c" opacity="0.050"/><circle cx="74.5" cy="358.0" r="2.0" fill="#5a6b8c" opacity="0.100"/><circle cx="74.5" cy="358.0" r="2.0" fill="#5a6b8c"/><circle cx="158.2" cy="165.0" r="5.4" fill="#5a6b8c" opacity="0.050"/><circle cx="158.2" cy="165.0" r="2.0" fill="#5a6b8c" opacity="0.100"/><circle cx="158.2" cy="165.0" r="2.0" fill="#5a6b8c"/><circle cx="408.5" cy="240.5" r="8.1" fill="#00d4ff" opacity="0.050"/><circle cx="408.5" cy="240.5" r="3.0" fill="#00d4ff" opacity="0.100"/><circle cx="408.5" cy="240.5" r="3.0" fill="#00d4ff"/><circle cx="354.4" cy="242.4" r="5.4" fill="#5a6b8c" opacity="0.050"/><circle cx="354.4" cy="242.4" r="2.0" fill="#5a6b8c" opacity="0.100"/><circle cx="354.4" cy="242.4" r="2.0" fill="#5a6b8c"/><circle cx="287.3" cy="138.2" r="5.4" fill="#5a6b8c" opacity="0.050"/><circle cx="287.3" cy="138.2" r="2.0" fill="#5a6b8c" opacity="0.100"/><circle cx="287.3" cy="138.2" r="2.0" fill="#5a6b8c"/><circle cx="285.9" cy="367.8" r="5.4" fill="#5a6b8c" opacity="0.050"/><circle cx="285.9" cy="367.8" r="2.0" fill="#5a6b8c" opacity="0.100"/><circle cx="285.9" cy="367.8" r="2.0" fill="#5a6b8c"/><circle cx="247.9" cy="327.2" r="5.4" fill="#5a6b8c" opacity="0.050"/><circle cx="247.9" cy="327.2" r="2.0" fill="#5a6b8c" opacity="0.100"/><circle cx="247.9" cy="327.2" r="2.0" fill="#5a6b8c"/><circle cx="298.3" cy="110.5" r="5.4" fill="#5a6b8c" opacity="0.050"/><circle cx="298.3" cy="110.5" r="2.0" fill="#5a6b8c" opacity="0.100"/><circle cx="298.3" cy="110.5" r="2.0" fill="#5a6b8c"/><circle cx="327.8" cy="279.2" r="5.4" fill="#5a6b8c" opacity="0.050"/><circle cx="327.8" cy="279.2" r="2.0" fill="#5a6b8c" opacity="0.100"/><circle cx="327.8" cy="279.2" r="2.0" fill="#5a6b8c"/><circle cx="172.4" cy="99.9" r="5.4" fill="#5a6b8c" opacity="0.050"/><circle cx="172.4" cy="99.9" r="2.0" fill="#5a6b8c" opacity="0.100"/><circle cx="172.4" cy="99.9" r="2.0" fill="#5a6b8c"/><circle cx="364.3" cy="241.3" r="5.4" fill="#5a6b8c" opacity="0.050"/><circle cx="364.3" cy="241.3" r="2.0" fill="#5a6b8c" opacity="0.100"/><circle cx="364.3" cy="241.3" r="2.0" fill="#5a6b8c"/><circle cx="314.4" cy="371.2" r="5.4" fill="#5a6b8c" opacity="0.050"/><circle cx="314.4" cy="371.2" r="2.0" fill="#5a6b8c" opacity="0.100"/><circle cx="314.4" cy="371.2" r="2.0" fill="#5a6b8c"/><circle cx="312.8" cy="384.8" r="5.4" fill="#5a6b8c" opacity="0.050"/><circle cx="312.8" cy="384.8" r="2.0" fill="#5a6b8c" opacity="0.100"/><circle cx="312.8" cy="384.8" r="2.0" fill="#5a6b8c"/><circle cx="204.3" cy="346.3" r="8.1" fill="#00d4ff" opacity="0.050"/><circle cx="204.3" cy="346.3" r="3.0" fill="#00d4ff" opacity="0.100"/><circle cx="204.3" cy="346.3" r="3.0" fill="#00d4ff"/><circle cx="221.2" cy="389.4" r="5.4" fill="#5a6b8c" opacity="0.050"/><circle cx="221.2" cy="389.4" r="2.0" fill="#5a6b8c" opacity="0.100"/><circle cx="221.2" cy="389.4" r="2.0" fill="#5a6b8c"/><circle cx="368.8" cy="121.2" r="5.4" fill="#5a6b8c" opacity="0.050"/><circle cx="368.8" cy="121.2" r="2.0" fill="#5a6b8c" opacity="0.100"/><circle cx="368.8" cy="121.2" r="2.0" fill="#5a6b8c"/><circle cx="116.2" cy="159.4" r="8.1" fill="#00d4ff" opacity="0.050"/><circle cx="116.2" cy="159.4" r="3.0" fill="#00d4ff" opacity="0.100"/><circle cx="116.2" cy="159.4" r="3.0" fill="#00d4ff"/><circle cx="398.3" cy="229.6" r="5.4" fill="#5a6b8c" opacity="0.050"/><circle cx="398.3" cy="229.6" r="2.0" fill="#5a6b8c" opacity="0.100"/><circle cx="398.3" cy="229.6" r="2.0" fill="#5a6b8c"/><circle cx="283.1" cy="186.3" r="5.4" fill="#5a6b8c" opacity="0.050"/><circle cx="283.1" cy="186.3" r="2.0" fill="#5a6b8c" opacity="0.100"/><circle cx="283.1" cy="186.3" r="2.0" fill="#5a6b8c"/><circle cx="242.5" cy="213.5" r="5.4" fill="#5a6b8c" opacity="0.050"/><circle cx="242.5" cy="213.5" r="2.0" fill="#5a6b8c" opacity="0.100"/><circle cx="242.5" cy="213.5" r="2.0" fill="#5a6b8c"/><circle cx="189.3" cy="277.2" r="5.4" fill="#5a6b8c" opacity="0.050"/><circle cx="189.3" cy="277.2" r="2.0" fill="#5a6b8c" opacity="0.100"/><circle cx="189.3" cy="277.2" r="2.0" fill="#5a6b8c"/><circle cx="268.6" cy="379.3" r="5.4" fill="#5a6b8c" opacity="0.050"/><circle cx="268.6" cy="379.3" r="2.0" fill="#5a6b8c" opacity="0.100"/><circle cx="268.6" cy="379.3" r="2.0" fill="#5a6b8c"/><circle cx="301.9" cy="387.3" r="5.4" fill="#5a6b8c" opacity="0.050"/><circle cx="301.9" cy="387.3" r="2.0" fill="#5a6b8c" opacity="0.100"/><circle cx="301.9" cy="387.3" r="2.0" fill="#5a6b8c"/><circle cx="361.2" cy="407.1" r="8.1" fill="#00d4ff" opacity="0.050"/><circle cx="361.2" cy="407.1" r="3.0" fill="#00d4ff" opacity="0.100"/><circle cx="361.2" cy="407.1" r="3.0" fill="#00d4ff"/><circle cx="298.2" cy="142.2" r="5.4" fill="#5a6b8c" opacity="0.050"/><circle cx="298.2" cy="142.2" r="2.0" fill="#5a6b8c" opacity="0.100"/><circle cx="298.2" cy="142.2" r="2.0" fill="#5a6b8c"/><circle cx="362.6" cy="398.7" r="5.4" fill="#5a6b8c" opacity="0.050"/><circle cx="362.6" cy="398.7" r="2.0" fill="#5a6b8c" opacity="0.100"/><circle cx="362.6" cy="398.7" r="2.0" fill="#5a6b8c"/><circle cx="377.6" cy="272.1" r="5.4" fill="#5a6b8c" opacity="0.050"/><circle cx="377.6" cy="272.1" r="2.0" fill="#5a6b8c" opacity="0.100"/><circle cx="377.6" cy="272.1" r="2.0" fill="#5a6b8c"/><circle cx="312.7" cy="157.6" r="5.4" fill="#5a6b8c" opacity="0.050"/><circle cx="312.7" cy="157.6" r="2.0" fill="#5a6b8c" opacity="0.100"/><circle cx="312.7" cy="157.6" r="2.0" fill="#5a6b8c"/><circle cx="352.7" cy="273.5" r="5.4" fill="#5a6b8c" opacity="0.050"/><circle cx="352.7" cy="273.5" r="2.0" fill="#5a6b8c" opacity="0.100"/><circle cx="352.7" cy="273.5" r="2.0" fill="#5a6b8c"/><circle cx="166.9" cy="110.3" r="5.4" fill="#5a6b8c" opacity="0.050"/><circle cx="166.9" cy="110.3" r="2.0" fill="#5a6b8c" opacity="0.100"/><circle cx="166.9" cy="110.3" r="2.0" fill="#5a6b8c"/><circle cx="360.3" cy="406.7" r="5.4" fill="#5a6b8c" opacity="0.050"/><circle cx="360.3" cy="406.7" r="2.0" fill="#5a6b8c" opacity="0.100"/><circle cx="360.3" cy="406.7" r="2.0" fill="#5a6b8c"/><text x="70" y="80" fill="#5a6b8c" font-size="15">sub-critical: dust &#183; largest 12% of nodes</text><line x1="650.9" y1="264.2" x2="695.8" y2="283.3" stroke="#00e660" stroke-width="1.4" opacity="0.7"/><line x1="650.9" y1="264.2" x2="785.9" y2="367.8" stroke="#00e660" stroke-width="1.4" opacity="0.7"/><line x1="650.9" y1="264.2" x2="798.3" y2="110.5" stroke="#00e660" stroke-width="1.4" opacity="0.7"/><line x1="650.9" y1="264.2" x2="868.8" y2="121.2" stroke="#00e660" stroke-width="1.4" opacity="0.7"/><line x1="650.9" y1="264.2" x2="898.3" y2="229.6" stroke="#00e660" stroke-width="1.4" opacity="0.7"/><line x1="650.9" y1="264.2" x2="801.9" y2="387.3" stroke="#00e660" stroke-width="1.4" opacity="0.7"/><line x1="695.8" y1="283.3" x2="814.4" y2="371.2" stroke="#00e660" stroke-width="1.4" opacity="0.7"/><line x1="695.8" y1="283.3" x2="721.2" y2="389.4" stroke="#00e660" stroke-width="1.4" opacity="0.7"/><line x1="695.8" y1="283.3" x2="898.3" y2="229.6" stroke="#00e660" stroke-width="1.4" opacity="0.7"/><line x1="695.8" y1="283.3" x2="798.2" y2="142.2" stroke="#00e660" stroke-width="1.4" opacity="0.7"/><line x1="695.8" y1="283.3" x2="862.6" y2="398.7" stroke="#00e660" stroke-width="1.4" opacity="0.7"/><line x1="782.7" y1="111.0" x2="827.8" y2="279.2" stroke="#1b2740" stroke-width="1.4" opacity="0.4"/><line x1="574.5" y1="358.0" x2="768.6" y2="379.3" stroke="#00e660" stroke-width="1.4" opacity="0.7"/><line x1="658.2" y1="165.0" x2="798.3" y2="110.5" stroke="#00e660" stroke-width="1.4" opacity="0.7"/><line x1="658.2" y1="165.0" x2="814.4" y2="371.2" stroke="#00e660" stroke-width="1.4" opacity="0.7"/><line x1="658.2" y1="165.0" x2="783.1" y2="186.3" stroke="#00e660" stroke-width="1.4" opacity="0.7"/><line x1="908.5" y1="240.5" x2="704.3" y2="346.3" stroke="#00e660" stroke-width="1.4" opacity="0.7"/><line x1="908.5" y1="240.5" x2="616.2" y2="159.4" stroke="#00e660" stroke-width="1.4" opacity="0.7"/><line x1="908.5" y1="240.5" x2="861.2" y2="407.1" stroke="#00e660" stroke-width="1.4" opacity="0.7"/><line x1="908.5" y1="240.5" x2="798.2" y2="142.2" stroke="#00e660" stroke-width="1.4" opacity="0.7"/><line x1="908.5" y1="240.5" x2="812.7" y2="157.6" stroke="#00e660" stroke-width="1.4" opacity="0.7"/><line x1="908.5" y1="240.5" x2="860.3" y2="406.7" stroke="#00e660" stroke-width="1.4" opacity="0.7"/><line x1="854.4" y1="242.4" x2="898.3" y2="229.6" stroke="#00e660" stroke-width="1.4" opacity="0.7"/><line x1="787.3" y1="138.2" x2="672.4" y2="99.9" stroke="#00e660" stroke-width="1.4" opacity="0.7"/><line x1="787.3" y1="138.2" x2="666.9" y2="110.3" stroke="#00e660" stroke-width="1.4" opacity="0.7"/><line x1="785.9" y1="367.8" x2="798.3" y2="110.5" stroke="#00e660" stroke-width="1.4" opacity="0.7"/><line x1="785.9" y1="367.8" x2="812.8" y2="384.8" stroke="#00e660" stroke-width="1.4" opacity="0.7"/><line x1="785.9" y1="367.8" x2="768.6" y2="379.3" stroke="#00e660" stroke-width="1.4" opacity="0.7"/><line x1="785.9" y1="367.8" x2="852.7" y2="273.5" stroke="#00e660" stroke-width="1.4" opacity="0.7"/><line x1="747.9" y1="327.2" x2="783.1" y2="186.3" stroke="#00e660" stroke-width="1.4" opacity="0.7"/><line x1="798.3" y1="110.5" x2="860.3" y2="406.7" stroke="#00e660" stroke-width="1.4" opacity="0.7"/><line x1="672.4" y1="99.9" x2="812.7" y2="157.6" stroke="#00e660" stroke-width="1.4" opacity="0.7"/><line x1="864.3" y1="241.3" x2="721.2" y2="389.4" stroke="#00e660" stroke-width="1.4" opacity="0.7"/><line x1="812.8" y1="384.8" x2="666.9" y2="110.3" stroke="#00e660" stroke-width="1.4" opacity="0.7"/><line x1="704.3" y1="346.3" x2="768.6" y2="379.3" stroke="#00e660" stroke-width="1.4" opacity="0.7"/><line x1="868.8" y1="121.2" x2="801.9" y2="387.3" stroke="#00e660" stroke-width="1.4" opacity="0.7"/><line x1="616.2" y1="159.4" x2="861.2" y2="407.1" stroke="#00e660" stroke-width="1.4" opacity="0.7"/><line x1="898.3" y1="229.6" x2="783.1" y2="186.3" stroke="#00e660" stroke-width="1.4" opacity="0.7"/><line x1="898.3" y1="229.6" x2="852.7" y2="273.5" stroke="#00e660" stroke-width="1.4" opacity="0.7"/><line x1="783.1" y1="186.3" x2="742.5" y2="213.5" stroke="#00e660" stroke-width="1.4" opacity="0.7"/><line x1="742.5" y1="213.5" x2="852.7" y2="273.5" stroke="#00e660" stroke-width="1.4" opacity="0.7"/><line x1="742.5" y1="213.5" x2="666.9" y2="110.3" stroke="#00e660" stroke-width="1.4" opacity="0.7"/><line x1="768.6" y1="379.3" x2="860.3" y2="406.7" stroke="#00e660" stroke-width="1.4" opacity="0.7"/><line x1="861.2" y1="407.1" x2="862.6" y2="398.7" stroke="#00e660" stroke-width="1.4" opacity="0.7"/><line x1="861.2" y1="407.1" x2="666.9" y2="110.3" stroke="#00e660" stroke-width="1.4" opacity="0.7"/><line x1="861.2" y1="407.1" x2="860.3" y2="406.7" stroke="#00e660" stroke-width="1.4" opacity="0.7"/><line x1="798.2" y1="142.2" x2="852.7" y2="273.5" stroke="#00e660" stroke-width="1.4" opacity="0.7"/><line x1="862.6" y1="398.7" x2="877.6" y2="272.1" stroke="#00e660" stroke-width="1.4" opacity="0.7"/><line x1="812.7" y1="157.6" x2="852.7" y2="273.5" stroke="#00e660" stroke-width="1.4" opacity="0.7"/><circle cx="650.9" cy="264.2" r="8.1" fill="#00d4ff" opacity="0.050"/><circle cx="650.9" cy="264.2" r="3.0" fill="#00d4ff" opacity="0.100"/><circle cx="650.9" cy="264.2" r="3.0" fill="#00d4ff"/><circle cx="695.8" cy="283.3" r="8.1" fill="#00d4ff" opacity="0.050"/><circle cx="695.8" cy="283.3" r="3.0" fill="#00d4ff" opacity="0.100"/><circle cx="695.8" cy="283.3" r="3.0" fill="#00d4ff"/><circle cx="782.7" cy="111.0" r="5.4" fill="#5a6b8c" opacity="0.050"/><circle cx="782.7" cy="111.0" r="2.0" fill="#5a6b8c" opacity="0.100"/><circle cx="782.7" cy="111.0" r="2.0" fill="#5a6b8c"/><circle cx="574.5" cy="358.0" r="8.1" fill="#00d4ff" opacity="0.050"/><circle cx="574.5" cy="358.0" r="3.0" fill="#00d4ff" opacity="0.100"/><circle cx="574.5" cy="358.0" r="3.0" fill="#00d4ff"/><circle cx="658.2" cy="165.0" r="8.1" fill="#00d4ff" opacity="0.050"/><circle cx="658.2" cy="165.0" r="3.0" fill="#00d4ff" opacity="0.100"/><circle cx="658.2" cy="165.0" r="3.0" fill="#00d4ff"/><circle cx="908.5" cy="240.5" r="8.1" fill="#00d4ff" opacity="0.050"/><circle cx="908.5" cy="240.5" r="3.0" fill="#00d4ff" opacity="0.100"/><circle cx="908.5" cy="240.5" r="3.0" fill="#00d4ff"/><circle cx="854.4" cy="242.4" r="8.1" fill="#00d4ff" opacity="0.050"/><circle cx="854.4" cy="242.4" r="3.0" fill="#00d4ff" opacity="0.100"/><circle cx="854.4" cy="242.4" r="3.0" fill="#00d4ff"/><circle cx="787.3" cy="138.2" r="8.1" fill="#00d4ff" opacity="0.050"/><circle cx="787.3" cy="138.2" r="3.0" fill="#00d4ff" opacity="0.100"/><circle cx="787.3" cy="138.2" r="3.0" fill="#00d4ff"/><circle cx="785.9" cy="367.8" r="8.1" fill="#00d4ff" opacity="0.050"/><circle cx="785.9" cy="367.8" r="3.0" fill="#00d4ff" opacity="0.100"/><circle cx="785.9" cy="367.8" r="3.0" fill="#00d4ff"/><circle cx="747.9" cy="327.2" r="8.1" fill="#00d4ff" opacity="0.050"/><circle cx="747.9" cy="327.2" r="3.0" fill="#00d4ff" opacity="0.100"/><circle cx="747.9" cy="327.2" r="3.0" fill="#00d4ff"/><circle cx="798.3" cy="110.5" r="8.1" fill="#00d4ff" opacity="0.050"/><circle cx="798.3" cy="110.5" r="3.0" fill="#00d4ff" opacity="0.100"/><circle cx="798.3" cy="110.5" r="3.0" fill="#00d4ff"/><circle cx="827.8" cy="279.2" r="5.4" fill="#5a6b8c" opacity="0.050"/><circle cx="827.8" cy="279.2" r="2.0" fill="#5a6b8c" opacity="0.100"/><circle cx="827.8" cy="279.2" r="2.0" fill="#5a6b8c"/><circle cx="672.4" cy="99.9" r="8.1" fill="#00d4ff" opacity="0.050"/><circle cx="672.4" cy="99.9" r="3.0" fill="#00d4ff" opacity="0.100"/><circle cx="672.4" cy="99.9" r="3.0" fill="#00d4ff"/><circle cx="864.3" cy="241.3" r="8.1" fill="#00d4ff" opacity="0.050"/><circle cx="864.3" cy="241.3" r="3.0" fill="#00d4ff" opacity="0.100"/><circle cx="864.3" cy="241.3" r="3.0" fill="#00d4ff"/><circle cx="814.4" cy="371.2" r="8.1" fill="#00d4ff" opacity="0.050"/><circle cx="814.4" cy="371.2" r="3.0" fill="#00d4ff" opacity="0.100"/><circle cx="814.4" cy="371.2" r="3.0" fill="#00d4ff"/><circle cx="812.8" cy="384.8" r="8.1" fill="#00d4ff" opacity="0.050"/><circle cx="812.8" cy="384.8" r="3.0" fill="#00d4ff" opacity="0.100"/><circle cx="812.8" cy="384.8" r="3.0" fill="#00d4ff"/><circle cx="704.3" cy="346.3" r="8.1" fill="#00d4ff" opacity="0.050"/><circle cx="704.3" cy="346.3" r="3.0" fill="#00d4ff" opacity="0.100"/><circle cx="704.3" cy="346.3" r="3.0" fill="#00d4ff"/><circle cx="721.2" cy="389.4" r="8.1" fill="#00d4ff" opacity="0.050"/><circle cx="721.2" cy="389.4" r="3.0" fill="#00d4ff" opacity="0.100"/><circle cx="721.2" cy="389.4" r="3.0" fill="#00d4ff"/><circle cx="868.8" cy="121.2" r="8.1" fill="#00d4ff" opacity="0.050"/><circle cx="868.8" cy="121.2" r="3.0" fill="#00d4ff" opacity="0.100"/><circle cx="868.8" cy="121.2" r="3.0" fill="#00d4ff"/><circle cx="616.2" cy="159.4" r="8.1" fill="#00d4ff" opacity="0.050"/><circle cx="616.2" cy="159.4" r="3.0" fill="#00d4ff" opacity="0.100"/><circle cx="616.2" cy="159.4" r="3.0" fill="#00d4ff"/><circle cx="898.3" cy="229.6" r="8.1" fill="#00d4ff" opacity="0.050"/><circle cx="898.3" cy="229.6" r="3.0" fill="#00d4ff" opacity="0.100"/><circle cx="898.3" cy="229.6" r="3.0" fill="#00d4ff"/><circle cx="783.1" cy="186.3" r="8.1" fill="#00d4ff" opacity="0.050"/><circle cx="783.1" cy="186.3" r="3.0" fill="#00d4ff" opacity="0.100"/><circle cx="783.1" cy="186.3" r="3.0" fill="#00d4ff"/><circle cx="742.5" cy="213.5" r="8.1" fill="#00d4ff" opacity="0.050"/><circle cx="742.5" cy="213.5" r="3.0" fill="#00d4ff" opacity="0.100"/><circle cx="742.5" cy="213.5" r="3.0" fill="#00d4ff"/><circle cx="689.3" cy="277.2" r="5.4" fill="#5a6b8c" opacity="0.050"/><circle cx="689.3" cy="277.2" r="2.0" fill="#5a6b8c" opacity="0.100"/><circle cx="689.3" cy="277.2" r="2.0" fill="#5a6b8c"/><circle cx="768.6" cy="379.3" r="8.1" fill="#00d4ff" opacity="0.050"/><circle cx="768.6" cy="379.3" r="3.0" fill="#00d4ff" opacity="0.100"/><circle cx="768.6" cy="379.3" r="3.0" fill="#00d4ff"/><circle cx="801.9" cy="387.3" r="8.1" fill="#00d4ff" opacity="0.050"/><circle cx="801.9" cy="387.3" r="3.0" fill="#00d4ff" opacity="0.100"/><circle cx="801.9" cy="387.3" r="3.0" fill="#00d4ff"/><circle cx="861.2" cy="407.1" r="8.1" fill="#00d4ff" opacity="0.050"/><circle cx="861.2" cy="407.1" r="3.0" fill="#00d4ff" opacity="0.100"/><circle cx="861.2" cy="407.1" r="3.0" fill="#00d4ff"/><circle cx="798.2" cy="142.2" r="8.1" fill="#00d4ff" opacity="0.050"/><circle cx="798.2" cy="142.2" r="3.0" fill="#00d4ff" opacity="0.100"/><circle cx="798.2" cy="142.2" r="3.0" fill="#00d4ff"/><circle cx="862.6" cy="398.7" r="8.1" fill="#00d4ff" opacity="0.050"/><circle cx="862.6" cy="398.7" r="3.0" fill="#00d4ff" opacity="0.100"/><circle cx="862.6" cy="398.7" r="3.0" fill="#00d4ff"/><circle cx="877.6" cy="272.1" r="8.1" fill="#00d4ff" opacity="0.050"/><circle cx="877.6" cy="272.1" r="3.0" fill="#00d4ff" opacity="0.100"/><circle cx="877.6" cy="272.1" r="3.0" fill="#00d4ff"/><circle cx="812.7" cy="157.6" r="8.1" fill="#00d4ff" opacity="0.050"/><circle cx="812.7" cy="157.6" r="3.0" fill="#00d4ff" opacity="0.100"/><circle cx="812.7" cy="157.6" r="3.0" fill="#00d4ff"/><circle cx="852.7" cy="273.5" r="8.1" fill="#00d4ff" opacity="0.050"/><circle cx="852.7" cy="273.5" r="3.0" fill="#00d4ff" opacity="0.100"/><circle cx="852.7" cy="273.5" r="3.0" fill="#00d4ff"/><circle cx="666.9" cy="110.3" r="8.1" fill="#00d4ff" opacity="0.050"/><circle cx="666.9" cy="110.3" r="3.0" fill="#00d4ff" opacity="0.100"/><circle cx="666.9" cy="110.3" r="3.0" fill="#00d4ff"/><circle cx="860.3" cy="406.7" r="8.1" fill="#00d4ff" opacity="0.050"/><circle cx="860.3" cy="406.7" r="3.0" fill="#00d4ff" opacity="0.100"/><circle cx="860.3" cy="406.7" r="3.0" fill="#00d4ff"/><text x="570" y="80" fill="#5a6b8c" font-size="15">super-critical: one mind &#183; largest 91% of nodes</text><circle cx="500.0" cy="235.0" r="550" fill="none" stroke="#070b16" stroke-width="120" opacity="0.00"/><circle cx="500.0" cy="235.0" r="640" fill="none" stroke="#070b16" stroke-width="120" opacity="0.06"/><circle cx="500.0" cy="235.0" r="730" fill="none" stroke="#070b16" stroke-width="120" opacity="0.12"/><circle cx="500.0" cy="235.0" r="820" fill="none" stroke="#070b16" stroke-width="120" opacity="0.18"/><circle cx="500.0" cy="235.0" r="910" fill="none" stroke="#070b16" stroke-width="120" opacity="0.24"/><circle cx="500.0" cy="235.0" r="1000" fill="none" stroke="#070b16" stroke-width="120" opacity="0.30"/></svg>