<svg xmlns="http://www.w3.org/2000/svg" viewBox="0 0 1200 630" width="1200" height="630" font-family="ui-monospace,Menlo,monospace"><rect width="1200" height="630" fill="#070b16"/><circle cx="238.5" cy="72.8" r="0.6" fill="#5a6b8c" opacity="0.16"/><circle cx="562.1" cy="500.7" r="1.1" fill="#5a6b8c" opacity="0.10"/><circle cx="341.0" cy="502.5" r="0.5" fill="#5a6b8c" opacity="0.13"/><circle cx="6.6" cy="400.1" r="0.5" fill="#5a6b8c" opacity="0.13"/><circle cx="368.8" cy="427.3" r="0.8" fill="#5a6b8c" opacity="0.08"/><circle cx="1107.0" cy="516.2" r="0.5" fill="#5a6b8c" opacity="0.19"/><circle cx="255.1" cy="98.2" r="0.9" fill="#5a6b8c" opacity="0.19"/><circle cx="1127.7" cy="14.0" r="0.6" fill="#5a6b8c" opacity="0.18"/><circle cx="570.4" cy="593.2" r="0.5" fill="#5a6b8c" opacity="0.20"/><circle cx="88.7" cy="350.6" r="0.7" fill="#5a6b8c" opacity="0.15"/><circle cx="841.0" cy="166.5" r="0.6" fill="#5a6b8c" opacity="0.20"/><circle cx="752.0" cy="526.6" r="0.6" fill="#5a6b8c" opacity="0.19"/><circle cx="1115.1" cy="605.3" r="1.0" fill="#5a6b8c" opacity="0.14"/><circle cx="402.4" cy="311.8" r="0.5" fill="#5a6b8c" opacity="0.19"/><circle cx="274.8" cy="462.0" r="0.9" fill="#5a6b8c" opacity="0.14"/><circle cx="817.4" cy="345.4" r="0.6" fill="#5a6b8c" opacity="0.10"/><circle cx="220.3" cy="219.3" r="0.6" fill="#5a6b8c" opacity="0.09"/><circle cx="639.8" cy="289.6" r="0.5" fill="#5a6b8c" opacity="0.13"/><circle cx="452.9" cy="300.9" r="1.0" fill="#5a6b8c" opacity="0.20"/><circle cx="540.8" cy="451.1" r="0.9" fill="#5a6b8c" opacity="0.06"/><circle cx="169.6" cy="255.4" r="0.8" fill="#5a6b8c" opacity="0.19"/><circle cx="251.3" cy="56.4" r="0.7" fill="#5a6b8c" opacity="0.18"/><circle cx="371.3" cy="455.5" r="0.9" fill="#5a6b8c" opacity="0.06"/><circle cx="495.4" cy="79.3" r="0.9" fill="#5a6b8c" opacity="0.20"/><circle cx="825.8" cy="361.6" r="0.7" fill="#5a6b8c" opacity="0.22"/><circle cx="1135.1" cy="88.4" r="0.7" fill="#5a6b8c" opacity="0.10"/><circle cx="235.8" cy="333.4" r="0.7" fill="#5a6b8c" opacity="0.09"/><circle cx="1122.5" cy="182.2" r="1.1" fill="#5a6b8c" opacity="0.06"/><circle cx="792.4" cy="269.7" r="0.8" fill="#5a6b8c" opacity="0.18"/><circle cx="267.9" cy="583.8" r="0.6" fill="#5a6b8c" opacity="0.17"/><circle cx="430.1" cy="259.6" r="0.6" fill="#5a6b8c" opacity="0.22"/><circle cx="1020.4" cy="489.3" r="0.6" fill="#5a6b8c" opacity="0.13"/><circle cx="149.9" cy="106.9" r="0.8" fill="#5a6b8c" opacity="0.19"/><circle cx="114.3" cy="327.5" r="0.6" fill="#5a6b8c" opacity="0.16"/><circle cx="573.7" cy="619.6" r="0.5" fill="#5a6b8c" opacity="0.08"/><circle cx="253.4" cy="432.5" r="0.4" fill="#5a6b8c" opacity="0.12"/><circle cx="362.7" cy="384.0" r="0.6" fill="#5a6b8c" opacity="0.21"/><circle cx="1018.9" cy="197.6" r="0.8" fill="#5a6b8c" opacity="0.22"/><circle cx="171.4" cy="352.4" r="1.1" fill="#5a6b8c" opacity="0.17"/><circle cx="740.4" cy="568.8" r="0.9" fill="#5a6b8c" opacity="0.06"/><circle cx="19.3" cy="248.3" r="0.4" fill="#5a6b8c" opacity="0.22"/><circle cx="621.2" cy="399.3" r="0.5" fill="#5a6b8c" opacity="0.13"/><circle cx="41.4" cy="550.6" r="0.6" fill="#5a6b8c" opacity="0.12"/><circle cx="916.4" cy="199.6" r="0.5" fill="#5a6b8c" opacity="0.12"/><circle cx="709.4" cy="198.0" r="1.1" fill="#5a6b8c" opacity="0.09"/><circle cx="429.5" cy="91.3" r="0.7" fill="#5a6b8c" opacity="0.11"/><circle cx="115.1" cy="456.0" r="0.6" fill="#5a6b8c" opacity="0.22"/><circle cx="696.5" cy="152.6" r="1.0" fill="#5a6b8c" opacity="0.14"/><circle cx="696.6" cy="243.4" r="0.6" fill="#5a6b8c" opacity="0.16"/><circle cx="990.7" cy="553.3" r="0.7" fill="#5a6b8c" opacity="0.16"/><circle cx="1145.9" cy="325.6" r="0.6" fill="#5a6b8c" opacity="0.17"/><circle cx="907.7" cy="575.3" r="0.7" fill="#5a6b8c" opacity="0.09"/><circle cx="177.7" cy="222.2" r="1.0" fill="#5a6b8c" opacity="0.12"/><circle cx="808.2" cy="272.5" r="0.9" fill="#5a6b8c" opacity="0.07"/><circle cx="926.6" cy="256.2" r="0.9" fill="#5a6b8c" opacity="0.22"/><circle cx="577.8" cy="606.8" r="0.5" fill="#5a6b8c" opacity="0.18"/><circle cx="649.5" cy="437.6" r="0.5" fill="#5a6b8c" opacity="0.22"/><circle cx="677.0" cy="282.6" r="0.9" fill="#5a6b8c" opacity="0.15"/><circle cx="1127.4" cy="206.6" r="0.7" fill="#5a6b8c" opacity="0.10"/><circle cx="324.2" cy="481.4" r="0.7" fill="#5a6b8c" opacity="0.09"/><circle cx="1153.4" cy="456.3" r="0.6" fill="#5a6b8c" opacity="0.07"/><circle cx="295.7" cy="589.1" r="0.9" fill="#5a6b8c" opacity="0.17"/><circle cx="998.4" cy="493.3" r="0.6" fill="#5a6b8c" opacity="0.05"/><circle cx="282.0" cy="47.5" r="0.9" fill="#5a6b8c" opacity="0.11"/><circle cx="1044.7" cy="134.3" r="1.1" fill="#5a6b8c" opacity="0.22"/><circle cx="1106.7" cy="624.4" r="0.9" fill="#5a6b8c" opacity="0.20"/><circle cx="135.9" cy="10.0" r="0.7" fill="#5a6b8c" opacity="0.11"/><circle cx="391.4" cy="204.8" r="1.0" fill="#5a6b8c" opacity="0.14"/><circle cx="587.8" cy="180.1" r="1.0" fill="#5a6b8c" opacity="0.12"/><circle cx="946.5" cy="513.3" r="0.6" fill="#5a6b8c" opacity="0.18"/><circle cx="1170.5" cy="353.9" r="0.6" fill="#5a6b8c" opacity="0.21"/><circle cx="838.0" cy="49.2" r="1.0" fill="#5a6b8c" opacity="0.20"/><circle cx="208.0" cy="144.1" r="0.6" fill="#5a6b8c" opacity="0.07"/><circle cx="578.5" cy="316.9" r="0.5" fill="#5a6b8c" opacity="0.19"/><circle cx="706.6" cy="293.9" r="0.5" fill="#5a6b8c" opacity="0.12"/><circle cx="349.5" cy="326.7" r="0.4" fill="#5a6b8c" opacity="0.15"/><circle cx="867.4" cy="405.5" r="0.5" fill="#5a6b8c" opacity="0.06"/><circle cx="392.5" cy="227.9" r="0.5" fill="#5a6b8c" opacity="0.08"/><circle cx="824.5" cy="40.0" r="0.5" fill="#5a6b8c" opacity="0.16"/><circle cx="822.2" cy="463.6" r="0.4" fill="#5a6b8c" opacity="0.07"/><circle cx="456.5" cy="590.5" r="1.1" fill="#5a6b8c" opacity="0.08"/><circle cx="778.2" cy="427.4" r="0.6" fill="#5a6b8c" opacity="0.19"/><circle cx="854.6" cy="627.7" r="0.7" fill="#5a6b8c" opacity="0.12"/><circle cx="73.9" cy="215.2" r="0.8" fill="#5a6b8c" opacity="0.19"/><circle cx="171.5" cy="244.7" r="0.6" fill="#5a6b8c" opacity="0.20"/><circle cx="1080.4" cy="183.3" r="1.0" fill="#5a6b8c" opacity="0.17"/><circle cx="952.0" cy="534.5" r="0.6" fill="#5a6b8c" opacity="0.09"/><circle cx="337.3" cy="40.4" r="1.0" fill="#5a6b8c" opacity="0.12"/><circle cx="231.1" cy="171.2" r="1.0" fill="#5a6b8c" opacity="0.15"/><circle cx="208.1" cy="146.3" r="0.6" fill="#5a6b8c" opacity="0.19"/><circle cx="478.1" cy="136.7" r="1.0" fill="#5a6b8c" opacity="0.13"/><circle cx="583.3" cy="555.6" r="0.6" fill="#5a6b8c" opacity="0.15"/><circle cx="497.9" cy="57.1" r="0.8" fill="#5a6b8c" opacity="0.07"/><circle cx="725.5" cy="144.6" r="1.0" fill="#5a6b8c" opacity="0.21"/><circle cx="685.5" cy="187.2" r="0.8" fill="#5a6b8c" opacity="0.15"/><circle cx="764.7" cy="135.3" r="0.7" fill="#5a6b8c" opacity="0.20"/><circle cx="797.3" cy="134.3" r="1.1" fill="#5a6b8c" opacity="0.14"/><circle cx="1106.2" cy="588.8" r="0.4" fill="#5a6b8c" opacity="0.14"/><circle cx="685.7" cy="421.8" r="0.8" fill="#5a6b8c" opacity="0.08"/><circle cx="137.1" cy="285.2" r="0.6" fill="#5a6b8c" opacity="0.08"/><circle cx="238.4" cy="526.2" r="0.6" fill="#5a6b8c" opacity="0.19"/><circle cx="292.3" cy="249.3" r="0.8" fill="#5a6b8c" opacity="0.11"/><circle cx="140.1" cy="355.1" r="0.5" fill="#5a6b8c" opacity="0.10"/><circle cx="250.9" cy="292.9" r="0.7" fill="#5a6b8c" opacity="0.10"/><circle cx="528.1" cy="569.7" r="1.0" fill="#5a6b8c" opacity="0.12"/><circle cx="826.7" cy="470.7" r="0.5" fill="#5a6b8c" opacity="0.05"/><circle cx="169.4" cy="158.5" r="0.7" fill="#5a6b8c" opacity="0.07"/><circle cx="581.6" cy="163.0" r="1.1" fill="#5a6b8c" opacity="0.09"/><circle cx="526.4" cy="433.2" r="1.0" fill="#5a6b8c" opacity="0.11"/><circle cx="265.9" cy="41.2" r="0.7" fill="#5a6b8c" opacity="0.15"/><circle cx="181.5" cy="485.1" r="0.7" fill="#5a6b8c" opacity="0.08"/><circle cx="514.2" cy="363.8" r="1.0" fill="#5a6b8c" opacity="0.08"/><circle cx="412.2" cy="463.5" r="1.0" fill="#5a6b8c" opacity="0.11"/><circle cx="32.6" cy="432.6" r="1.0" fill="#5a6b8c" opacity="0.06"/><circle cx="238.2" cy="268.4" r="0.7" fill="#5a6b8c" opacity="0.18"/><circle cx="782.4" cy="421.2" r="0.8" fill="#5a6b8c" opacity="0.13"/><circle cx="561.4" cy="37.1" r="0.7" fill="#5a6b8c" opacity="0.10"/><circle cx="972.5" cy="381.7" r="0.4" fill="#5a6b8c" opacity="0.15"/><circle cx="907.2" cy="553.4" r="0.4" fill="#5a6b8c" opacity="0.20"/><circle cx="472.9" cy="553.4" r="0.5" fill="#5a6b8c" opacity="0.05"/><circle cx="580.8" cy="620.8" r="0.4" fill="#5a6b8c" opacity="0.09"/><circle cx="401.8" cy="226.7" r="0.7" fill="#5a6b8c" opacity="0.07"/><circle cx="988.1" cy="549.5" r="0.8" fill="#5a6b8c" opacity="0.21"/><circle cx="180.5" cy="557.1" r="1.1" fill="#5a6b8c" opacity="0.07"/><circle cx="1196.5" cy="363.0" r="0.7" fill="#5a6b8c" opacity="0.10"/><circle cx="1063.1" cy="22.8" r="0.9" fill="#5a6b8c" opacity="0.17"/><circle cx="172.9" cy="196.9" r="0.9" fill="#5a6b8c" opacity="0.21"/><circle cx="1069.9" cy="127.9" r="0.5" fill="#5a6b8c" opacity="0.07"/><circle cx="1089.2" cy="371.7" r="0.7" fill="#5a6b8c" opacity="0.16"/><circle cx="529.3" cy="10.4" r="1.0" fill="#5a6b8c" opacity="0.06"/><circle cx="305.7" cy="250.1" r="0.5" fill="#5a6b8c" opacity="0.20"/><circle cx="1193.7" cy="626.8" r="0.7" fill="#5a6b8c" opacity="0.09"/><circle cx="657.4" cy="526.8" r="0.7" fill="#5a6b8c" opacity="0.16"/><circle cx="517.7" cy="255.6" r="0.7" fill="#5a6b8c" opacity="0.15"/><circle cx="586.1" cy="142.7" r="0.5" fill="#5a6b8c" opacity="0.05"/><circle cx="987.4" cy="248.6" r="0.7" fill="#5a6b8c" opacity="0.17"/><circle cx="459.6" cy="405.1" r="0.5" fill="#5a6b8c" opacity="0.22"/><circle cx="195.5" cy="118.8" r="0.8" fill="#5a6b8c" opacity="0.18"/><circle cx="474.1" cy="337.6" r="0.8" fill="#5a6b8c" opacity="0.06"/><circle cx="648.9" cy="59.1" r="0.5" fill="#5a6b8c" opacity="0.07"/><circle cx="792.8" cy="77.7" r="0.4" fill="#5a6b8c" opacity="0.21"/><circle cx="489.1" cy="150.6" r="0.4" fill="#5a6b8c" opacity="0.16"/><circle cx="997.9" cy="58.5" r="0.8" fill="#5a6b8c" opacity="0.07"/><circle cx="337.4" cy="420.0" r="0.8" fill="#5a6b8c" opacity="0.15"/><circle cx="88.7" cy="352.3" r="0.9" fill="#5a6b8c" opacity="0.21"/><circle cx="977.5" cy="115.6" r="0.6" fill="#5a6b8c" opacity="0.22"/><circle cx="956.0" cy="67.8" r="0.7" fill="#5a6b8c" opacity="0.14"/><circle cx="971.5" cy="178.0" r="1.1" fill="#5a6b8c" opacity="0.12"/><circle cx="566.8" cy="65.4" r="0.4" fill="#5a6b8c" opacity="0.15"/><circle cx="75.6" cy="210.7" r="0.4" fill="#5a6b8c" opacity="0.18"/><circle cx="866.1" cy="11.1" r="0.8" fill="#5a6b8c" opacity="0.20"/><circle cx="245.8" cy="423.6" r="0.9" fill="#5a6b8c" opacity="0.10"/><circle cx="1068.9" cy="471.8" r="0.6" fill="#5a6b8c" opacity="0.20"/><circle cx="128.2" cy="263.7" r="1.0" fill="#5a6b8c" opacity="0.15"/><circle cx="1158.3" cy="364.5" r="0.8" fill="#5a6b8c" opacity="0.21"/><circle cx="226.0" cy="279.1" r="0.7" fill="#5a6b8c" opacity="0.19"/><circle cx="65.1" cy="206.9" r="0.7" fill="#5a6b8c" opacity="0.12"/><circle cx="68.7" cy="329.9" r="0.6" fill="#5a6b8c" opacity="0.11"/><circle cx="245.2" cy="239.7" r="0.7" fill="#5a6b8c" opacity="0.11"/><circle cx="910.9" cy="308.9" r="0.7" fill="#5a6b8c" opacity="0.18"/><circle cx="1179.7" cy="5.3" r="0.6" fill="#5a6b8c" opacity="0.20"/><circle cx="672.3" cy="22.4" r="1.0" fill="#5a6b8c" opacity="0.11"/><circle cx="542.8" cy="133.2" r="0.8" fill="#5a6b8c" opacity="0.17"/><circle cx="1058.4" cy="558.2" r="0.6" fill="#5a6b8c" opacity="0.20"/><circle cx="910.1" cy="248.8" r="0.5" fill="#5a6b8c" opacity="0.21"/><circle cx="1053.0" cy="200.8" r="0.9" fill="#5a6b8c" opacity="0.17"/><circle cx="608.2" cy="442.4" r="0.7" fill="#5a6b8c" opacity="0.21"/><circle cx="23.1" cy="600.0" r="1.0" fill="#5a6b8c" opacity="0.13"/><circle cx="554.0" cy="76.8" r="0.7" fill="#5a6b8c" opacity="0.19"/><circle cx="945.3" cy="50.8" r="0.4" fill="#5a6b8c" opacity="0.09"/><circle cx="888.7" cy="337.8" r="0.6" fill="#5a6b8c" opacity="0.18"/><circle cx="485.4" cy="450.7" r="0.7" fill="#5a6b8c" opacity="0.07"/><circle cx="632.8" cy="627.7" r="0.6" fill="#5a6b8c" opacity="0.06"/><circle cx="601.8" cy="232.4" r="0.5" fill="#5a6b8c" opacity="0.22"/><circle cx="665.1" cy="169.8" r="0.4" fill="#5a6b8c" opacity="0.11"/><circle cx="133.6" cy="31.6" r="0.9" fill="#5a6b8c" opacity="0.14"/><circle cx="416.4" cy="74.9" r="0.4" fill="#5a6b8c" opacity="0.22"/><circle cx="1089.5" cy="101.8" r="0.4" fill="#5a6b8c" opacity="0.16"/><circle cx="927.0" cy="125.1" r="0.8" fill="#5a6b8c" opacity="0.11"/><circle cx="318.3" cy="163.9" r="0.9" fill="#5a6b8c" opacity="0.15"/><circle cx="60.0" cy="513.0" r="0.4" fill="#5a6b8c" opacity="0.09"/><circle cx="512.4" cy="180.2" r="0.7" fill="#5a6b8c" opacity="0.11"/><circle cx="1129.1" cy="353.7" r="0.7" fill="#5a6b8c" opacity="0.19"/><circle cx="615.3" cy="472.0" r="1.0" fill="#5a6b8c" opacity="0.14"/><circle cx="1164.8" cy="263.7" r="0.4" fill="#5a6b8c" opacity="0.16"/><circle cx="1111.7" cy="353.2" r="0.6" fill="#5a6b8c" opacity="0.06"/><circle cx="389.3" cy="222.7" r="0.9" fill="#5a6b8c" opacity="0.19"/><circle cx="544.6" cy="172.1" r="0.4" fill="#5a6b8c" opacity="0.10"/><circle cx="756.3" cy="26.2" r="0.5" fill="#5a6b8c" opacity="0.06"/><circle cx="939.3" cy="60.0" r="0.6" fill="#5a6b8c" opacity="0.16"/><circle cx="1157.4" cy="572.8" r="0.8" fill="#5a6b8c" opacity="0.19"/><circle cx="842.5" cy="4.1" r="0.9" fill="#5a6b8c" opacity="0.19"/><circle cx="972.5" cy="460.8" r="0.6" fill="#5a6b8c" opacity="0.22"/><circle cx="392.0" cy="26.4" r="0.9" fill="#5a6b8c" opacity="0.09"/><circle cx="627.6" cy="19.8" r="0.5" fill="#5a6b8c" opacity="0.19"/><circle cx="1044.5" cy="366.9" r="0.6" fill="#5a6b8c" opacity="0.19"/><circle cx="743.9" cy="591.3" r="0.5" fill="#5a6b8c" opacity="0.10"/><circle cx="853.5" cy="548.1" r="1.1" fill="#5a6b8c" opacity="0.22"/><circle cx="524.4" cy="522.3" r="1.1" fill="#5a6b8c" opacity="0.11"/><circle cx="32.5" cy="544.8" r="0.6" fill="#5a6b8c" opacity="0.08"/><circle cx="215.9" cy="522.5" r="0.9" fill="#5a6b8c" opacity="0.08"/><circle cx="566.4" cy="626.1" r="0.9" fill="#5a6b8c" opacity="0.11"/><circle cx="910.3" cy="393.9" r="0.9" fill="#5a6b8c" opacity="0.07"/><circle cx="975.7" cy="107.8" r="0.5" fill="#5a6b8c" opacity="0.20"/><circle cx="223.4" cy="175.4" r="0.6" fill="#5a6b8c" opacity="0.12"/><circle cx="556.4" cy="190.0" r="1.0" fill="#5a6b8c" opacity="0.17"/><circle cx="259.8" cy="625.0" r="0.7" fill="#5a6b8c" opacity="0.17"/><circle cx="1161.9" cy="622.2" r="0.9" fill="#5a6b8c" opacity="0.16"/><circle cx="487.2" cy="202.1" r="0.5" fill="#5a6b8c" opacity="0.11"/><circle cx="440.9" cy="310.7" r="0.7" fill="#5a6b8c" opacity="0.14"/><circle cx="746.4" cy="568.0" r="0.5" fill="#5a6b8c" opacity="0.06"/><circle cx="433.6" cy="482.5" r="0.8" fill="#5a6b8c" opacity="0.21"/><circle cx="629.0" cy="437.1" r="0.8" fill="#5a6b8c" opacity="0.21"/><circle cx="1173.5" cy="369.2" r="0.5" fill="#5a6b8c" opacity="0.08"/><circle cx="683.2" cy="164.1" r="0.5" fill="#5a6b8c" opacity="0.19"/><circle cx="143.5" cy="98.1" r="0.5" fill="#5a6b8c" opacity="0.20"/><circle cx="786.3" cy="142.0" r="0.5" fill="#5a6b8c" opacity="0.10"/><circle cx="430.7" cy="11.0" r="0.5" fill="#5a6b8c" opacity="0.19"/><circle cx="633.6" cy="448.6" r="0.6" fill="#5a6b8c" opacity="0.17"/><circle cx="536.7" cy="500.9" r="0.9" fill="#5a6b8c" opacity="0.21"/><circle cx="1112.1" cy="379.1" r="0.7" fill="#5a6b8c" opacity="0.14"/><circle cx="195.7" cy="440.8" r="0.7" fill="#5a6b8c" opacity="0.16"/><circle cx="1047.3" cy="16.3" r="0.9" fill="#5a6b8c" opacity="0.06"/><circle cx="243.9" cy="275.0" r="0.7" fill="#5a6b8c" opacity="0.15"/><circle cx="1040.6" cy="466.6" r="0.7" fill="#5a6b8c" opacity="0.20"/><circle cx="10.6" cy="17.6" r="1.0" fill="#5a6b8c" opacity="0.18"/><circle cx="374.2" cy="81.7" r="0.5" fill="#5a6b8c" opacity="0.18"/><circle cx="622.2" cy="475.1" r="0.6" fill="#5a6b8c" opacity="0.14"/><circle cx="852.9" cy="193.9" r="0.6" fill="#5a6b8c" opacity="0.05"/><circle cx="190.6" cy="479.1" r="0.4" fill="#5a6b8c" opacity="0.16"/><circle cx="187.2" cy="458.4" r="0.9" fill="#5a6b8c" opacity="0.05"/><circle cx="905.0" cy="508.1" r="0.5" fill="#5a6b8c" opacity="0.13"/><circle cx="193.0" cy="136.5" r="1.0" fill="#5a6b8c" opacity="0.14"/><circle cx="218.6" cy="421.5" r="0.5" fill="#5a6b8c" opacity="0.20"/><circle cx="1072.9" cy="220.4" r="0.6" fill="#5a6b8c" opacity="0.17"/><circle cx="685.1" cy="204.7" r="0.9" fill="#5a6b8c" opacity="0.13"/><circle cx="118.1" cy="524.1" r="0.4" fill="#5a6b8c" opacity="0.17"/><circle cx="57.3" cy="600.1" r="1.0" fill="#5a6b8c" opacity="0.19"/><circle cx="814.1" cy="116.7" r="0.5" fill="#5a6b8c" opacity="0.17"/><circle cx="517.7" cy="106.2" r="0.7" fill="#5a6b8c" opacity="0.05"/><line x1="648" y1="251" x2="758" y2="182" stroke="#00e660" stroke-width="1.5" opacity="0.45"/><line x1="648" y1="251" x2="1037" y2="357" stroke="#b48bff" stroke-width="1.5" opacity="0.45"/><line x1="758" y1="182" x2="965" y2="451" stroke="#b48bff" stroke-width="1.5" opacity="0.45"/><line x1="902" y1="182" x2="1012" y2="251" stroke="#00e660" stroke-width="1.5" opacity="0.45"/><line x1="902" y1="182" x2="830" y2="488" stroke="#00e660" stroke-width="1.5" opacity="0.45"/><line x1="1012" y1="251" x2="965" y2="451" stroke="#00e660" stroke-width="1.5" opacity="0.45"/><line x1="1012" y1="251" x2="830" y2="488" stroke="#00e660" stroke-width="1.5" opacity="0.45"/><line x1="1037" y1="357" x2="830" y2="488" stroke="#00e660" stroke-width="1.5" opacity="0.45"/><line x1="965" y1="451" x2="830" y2="488" stroke="#00e660" stroke-width="1.5" opacity="0.45"/><circle cx="648.1" cy="251.2" r="25.6" fill="#00d4ff" opacity="0.025"/><circle cx="648.1" cy="251.2" r="18.5" fill="#00d4ff" opacity="0.050"/><circle cx="648.1" cy="251.2" r="11.3" fill="#00d4ff" opacity="0.075"/><circle cx="648.1" cy="251.2" r="4.2" fill="#00d4ff" opacity="0.100"/><circle cx="648.1" cy="251.2" r="4.2" fill="#00d4ff"/><circle cx="758.2" cy="182.0" r="25.6" fill="#00d4ff" opacity="0.025"/><circle cx="758.2" cy="182.0" r="18.5" fill="#00d4ff" opacity="0.050"/><circle cx="758.2" cy="182.0" r="11.3" fill="#00d4ff" opacity="0.075"/><circle cx="758.2" cy="182.0" r="4.2" fill="#00d4ff" opacity="0.100"/><circle cx="758.2" cy="182.0" r="4.2" fill="#00d4ff"/><circle cx="901.8" cy="182.0" r="25.6" fill="#00d4ff" opacity="0.025"/><circle cx="901.8" cy="182.0" r="18.5" fill="#00d4ff" opacity="0.050"/><circle cx="901.8" cy="182.0" r="11.3" fill="#00d4ff" opacity="0.075"/><circle cx="901.8" cy="182.0" r="4.2" fill="#00d4ff" opacity="0.100"/><circle cx="901.8" cy="182.0" r="4.2" fill="#00d4ff"/><circle cx="1011.9" cy="251.2" r="25.6" fill="#00d4ff" opacity="0.025"/><circle cx="1011.9" cy="251.2" r="18.5" fill="#00d4ff" opacity="0.050"/><circle cx="1011.9" cy="251.2" r="11.3" fill="#00d4ff" opacity="0.075"/><circle cx="1011.9" cy="251.2" r="4.2" fill="#00d4ff" opacity="0.100"/><circle cx="1011.9" cy="251.2" r="4.2" fill="#00d4ff"/><circle cx="1036.8" cy="357.3" r="25.6" fill="#00d4ff" opacity="0.025"/><circle cx="1036.8" cy="357.3" r="18.5" fill="#00d4ff" opacity="0.050"/><circle cx="1036.8" cy="357.3" r="11.3" fill="#00d4ff" opacity="0.075"/><circle cx="1036.8" cy="357.3" r="4.2" fill="#00d4ff" opacity="0.100"/><circle cx="1036.8" cy="357.3" r="4.2" fill="#00d4ff"/><circle cx="965.0" cy="450.7" r="25.6" fill="#00d4ff" opacity="0.025"/><circle cx="965.0" cy="450.7" r="18.5" fill="#00d4ff" opacity="0.050"/><circle cx="965.0" cy="450.7" r="11.3" fill="#00d4ff" opacity="0.075"/><circle cx="965.0" cy="450.7" r="4.2" fill="#00d4ff" opacity="0.100"/><circle cx="965.0" cy="450.7" r="4.2" fill="#00d4ff"/><circle cx="830.0" cy="487.5" r="25.6" fill="#00d4ff" opacity="0.025"/><circle cx="830.0" cy="487.5" r="18.5" fill="#00d4ff" opacity="0.050"/><circle cx="830.0" cy="487.5" r="11.3" fill="#00d4ff" opacity="0.075"/><circle cx="830.0" cy="487.5" r="4.2" fill="#00d4ff" opacity="0.100"/><circle cx="830.0" cy="487.5" r="4.2" fill="#00d4ff"/><circle cx="600.0" cy="315.0" r="660" fill="none" stroke="#070b16" stroke-width="120" opacity="0.00"/><circle cx="600.0" cy="315.0" r="768" fill="none" stroke="#070b16" stroke-width="120" opacity="0.06"/><circle cx="600.0" cy="315.0" r="876" fill="none" stroke="#070b16" stroke-width="120" opacity="0.12"/><circle cx="600.0" cy="315.0" r="984" fill="none" stroke="#070b16" stroke-width="120" opacity="0.18"/><circle cx="600.0" cy="315.0" r="1092" fill="none" stroke="#070b16" stroke-width="120" opacity="0.24"/><circle cx="600.0" cy="315.0" r="1200" fill="none" stroke="#070b16" stroke-width="120" opacity="0.30"/><rect x="58" y="150" width="120" height="150" rx="10" fill="none" stroke="#e6c34d" stroke-width="2" opacity="0.55"/><text x="72" y="272" fill="#e6c34d" font-size="150" font-weight="700" opacity="0.9" font-family="Georgia,serif">P</text><text x="60" y="115" fill="#c8d4e8" font-size="45" font-weight="700" letter-spacing="1">GESTA HVNGARORVM</text><text x="62" y="360" fill="#00d4ff" font-size="22" opacity="0.9">the first 1-bit Hungarian LLM</text><text x="62" y="392" fill="#5a6b8c" font-size="15">a ternary GPT trained on Anonymus, c. 1200</text><text x="62" y="414" fill="#5a6b8c" font-size="15">every weight in &#123;&#8722;1, 0, +1&#125;</text></svg>