<svg xmlns="http://www.w3.org/2000/svg" viewBox="0 0 1000 300" width="1000" height="300" font-family="ui-monospace,Menlo,monospace"><rect width="1000" height="300" fill="#070b16"/><rect x="-5" y="108" width="190" height="84" rx="12" fill="#0d1526" stroke="#e6c34d" stroke-width="1.6"/><text x="90" y="144" fill="#c8d4e8" font-size="19" text-anchor="middle" font-weight="700">Anonymus</text><text x="90" y="168" fill="#5a6b8c" font-size="12" text-anchor="middle">94 KB of Latin</text><line x1="187" y1="150" x2="268" y2="150" stroke="#00d4ff" stroke-width="2" opacity="0.6"/><polygon points="268,145 278,150 268,155" fill="#00d4ff" opacity="0.8"/><rect x="270" y="108" width="190" height="84" rx="12" fill="#0d1526" stroke="#00d4ff" stroke-width="1.6"/><text x="365" y="144" fill="#c8d4e8" font-size="19" text-anchor="middle" font-weight="700">bytes</text><text x="365" y="168" fill="#5a6b8c" font-size="12" text-anchor="middle">ByteTokenizer, vocab 256</text><line x1="462" y1="150" x2="543" y2="150" stroke="#00d4ff" stroke-width="2" opacity="0.6"/><polygon points="543,145 553,150 543,155" fill="#00d4ff" opacity="0.8"/><rect x="545" y="108" width="190" height="84" rx="12" fill="#0d1526" stroke="#00e660" stroke-width="1.6"/><text x="640" y="144" fill="#c8d4e8" font-size="19" text-anchor="middle" font-weight="700">ternary GPT</text><text x="640" y="168" fill="#5a6b8c" font-size="12" text-anchor="middle">weights in {-1,0,+1}</text><line x1="737" y1="150" x2="818" y2="150" stroke="#00d4ff" stroke-width="2" opacity="0.6"/><polygon points="818,145 828,150 818,155" fill="#00d4ff" opacity="0.8"/><rect x="820" y="108" width="190" height="84" rx="12" fill="#0d1526" stroke="#b48bff" stroke-width="1.6"/><text x="915" y="144" fill="#c8d4e8" font-size="19" text-anchor="middle" font-weight="700">gesta</text><text x="915" y="168" fill="#5a6b8c" font-size="12" text-anchor="middle">it writes in his hand</text><text x="60" y="46" fill="#c8d4e8" font-size="20" font-weight="700">from scripture to a byte-graph that writes it back</text></svg>